<svg version="1.0" xmlns="http://www.w3.org/2000/svg" width="600.000000" height="360.000000" preserveAspectRatio="xMidYMid meet" style=""><rect id="backgroundrect" width="100%" height="100%" x="0" y="0" fill="none" stroke="none"/>


<g class="currentLayer" style=""><title>Layer 1</title><g transform="translate(0, 360) scale(0.1, -0.1)" fill="#ffffff" stroke="none" id="svg_1" class="selected" filter="url(#f031)" opacity="1" fill-opacity="1">
<path d="M4561 3585 c-46 -8 -122 -28 -170 -44 -47 -16 -113 -32 -146 -36 -68 -8 -138 -35 -173 -68 -36 -34 -58 -84 -75 -172 -22 -115 -52 -187 -101 -242 -39 -43 -139 -113 -122 -85 7 12 -139 88 -404 212 -74 35 -144 71 -155 80 -70 61 -282 130 -420 137 -73 3 -117 11 -162 29 -74 29 -230 47 -328 39 -123 -11 -285 -74 -620 -243 l-190 -95 -145 -146 c-239 -240 -294 -319 -338 -481 -35 -132 -34 -138 10 -55 99 186 237 360 327 413 43 25 54 27 161 27 100 0 121 -3 158 -23 l43 -22 -6 22 c-29 95 -96 147 -189 148 l-49 0 19 21 c10 12 37 30 58 41 49 25 135 21 166 -7 26 -23 26 -5 0 28 -11 14 -20 30 -20 35 0 14 47 21 106 15 49 -5 52 -4 56 18 7 52 139 118 353 175 130 34 316 64 398 63 l72 0 -60 -23 c-92 -36 -314 -145 -373 -184 -35 -24 -73 -64 -112 -117 -71 -98 -77 -104 -141 -124 l-50 -17 63 -45 c53 -38 70 -58 108 -129 38 -71 57 -93 120 -143 198 -158 521 -347 675 -397 22 -7 168 -89 324 -183 l283 -171 -5 -56 c-8 -75 -51 -219 -87 -291 -35 -72 -27 -74 69 -24 82 43 165 123 287 276 51 64 112 132 135 150 76 61 114 104 151 176 28 51 67 100 150 184 62 63 142 155 178 204 101 139 212 211 358 235 30 5 111 10 182 11 127 2 128 2 201 -33 41 -19 114 -58 164 -87 122 -70 185 -92 262 -92 78 0 146 33 205 101 48 54 65 86 151 290 68 158 95 246 84 273 -11 30 -276 103 -412 113 -44 3 -103 15 -131 26 -48 19 -53 20 -105 4 -30 -9 -81 -32 -114 -51 -33 -19 -89 -50 -125 -68 -72 -35 -81 -36 -425 -27 -85 3 -150 0 -165 -7 -22 -9 -19 -11 35 -17 152 -18 279 -72 360 -151 48 -47 67 -77 95 -150 11 -28 13 -29 24 -11 27 46 69 86 90 86 13 0 31 -10 42 -21 10 -12 65 -59 121 -104 l102 -83 -127 5 c-70 2 -156 11 -192 18 -36 8 -108 22 -160 30 -284 47 -418 114 -435 215 -8 50 -20 48 -60 -9 -39 -56 -41 -125 -4 -200 14 -28 24 -51 23 -51 -2 0 -25 16 -50 36 -84 63 -181 102 -228 90 -36 -9 -144 -104 -256 -226 -103 -112 -99 -112 57 -9 137 90 203 109 243 69 42 -42 4 -83 -260 -280 -47 -35 -89 -67 -94 -71 -6 -5 33 10 85 33 56 25 115 43 145 46 53 4 94 -9 94 -31 0 -7 -38 -58 -85 -113 -47 -54 -95 -118 -107 -141 -27 -51 -72 -74 -158 -80 -56 -5 -76 -1 -145 26 -152 60 -419 241 -465 316 -64 103 -34 339 54 431 50 51 82 61 246 75 69 5 148 17 177 24 28 8 83 15 123 15 147 0 213 39 246 144 29 93 83 119 272 132 56 3 102 8 102 11 0 2 -6 17 -14 32 -10 18 -35 37 -74 54 -33 15 -64 27 -69 27 -5 0 -20 -23 -32 -50 -27 -60 -49 -75 -79 -54 -28 19 -29 93 -4 141 17 33 76 83 97 83 7 0 31 14 55 31 103 75 169 40 204 -108 l14 -58 36 80 c21 44 42 90 48 102 17 35 91 58 188 58 47 0 93 -3 103 -7 18 -8 18 -9 -1 -35 -22 -32 -64 -113 -58 -113 2 0 38 16 80 35 101 46 178 67 213 59 15 -3 61 -24 101 -46 41 -22 76 -37 79 -34 9 9 -24 53 -60 80 -124 95 -472 150 -696 111z m-1579 -286 c73 -20 85 -27 148 -88 66 -64 89 -104 77 -135 -14 -35 -56 -48 -205 -62 -82 -8 -183 -23 -226 -34 -80 -20 -202 -78 -231 -110 -15 -16 -12 -16 62 2 47 11 130 21 208 23 l130 5 -80 -28 c-121 -44 -193 -80 -231 -119 -20 -19 -33 -37 -30 -40 3 -3 47 9 98 27 51 17 113 34 138 37 l45 5 0 -203 c1 -158 5 -219 18 -273 10 -38 16 -71 14 -73 -2 -2 -79 46 -170 106 -358 236 -566 419 -515 453 29 19 85 46 123 58 64 20 115 52 135 85 10 16 44 93 75 170 60 150 87 187 151 211 50 19 160 12 266 -17z m2622 -70 c72 -22 146 -55 146 -65 0 -15 -239 27 -298 52 -87 36 38 47 152 13z m200 -144 c4 -16 -2 -44 -15 -76 -27 -63 -59 -81 -136 -77 l-55 3 41 50 c43 53 129 125 147 125 7 0 15 -11 18 -25z m-451 -84 c36 -27 85 -62 110 -80 70 -48 99 -151 56 -205 -26 -34 -52 -33 -74 2 -10 15 -55 70 -100 122 -100 115 -121 153 -106 186 16 35 43 30 114 -25z" id="svg_2" filter="url(#f031)" opacity="1" fill="#ffffff" fill-opacity="1"/>
<path d="M5037 3399 c-40 -9 -112 -44 -121 -57 -5 -8 212 -38 218 -30 2 1 6 24 8 51 l6 47 -37 -1 c-20 -1 -53 -5 -74 -10z" id="svg_3" filter="url(#f031)" opacity="1" fill="#ffffff" fill-opacity="1"/>
<path d="M1969 2793 c-14 -16 -43 -53 -64 -83 -21 -30 -65 -85 -96 -121 -59 -67 -67 -82 -138 -247 -50 -116 -121 -236 -177 -300 -38 -44 -50 -51 -104 -61 -34 -7 -123 -40 -198 -73 -139 -62 -242 -101 -249 -95 -2 2 6 34 18 71 11 38 19 69 17 71 -2 1 -52 -52 -113 -118 -60 -66 -156 -165 -212 -220 -62 -61 -107 -113 -113 -133 -12 -34 -11 -38 26 -191 15 -58 24 -122 22 -150 l-3 -48 -23 62 c-70 191 -68 347 8 451 16 23 72 73 123 111 150 112 173 144 218 306 26 95 59 243 59 267 0 11 -31 -14 -82 -66 -128 -127 -300 -206 -425 -193 -67 7 -196 71 -298 148 -97 73 -128 77 -152 22 -56 -135 94 -271 351 -320 43 -8 99 -13 125 -11 72 7 282 58 324 80 22 11 41 17 43 15 7 -6 -176 -169 -261 -232 -38 -29 -89 -62 -113 -74 -24 -12 -45 -28 -48 -35 -3 -8 12 -94 33 -193 35 -166 38 -189 38 -343 l0 -165 -39 -110 c-31 -90 -37 -118 -31 -155 3 -25 6 -59 5 -76 0 -17 9 -42 20 -56 11 -15 20 -41 20 -60 0 -69 87 -158 154 -158 14 0 26 -2 26 -5 0 -3 -18 -21 -39 -41 -50 -44 -81 -108 -81 -163 0 -53 42 -101 88 -101 45 0 140 54 222 126 91 80 100 84 220 118 52 15 176 52 275 84 l180 56 60 62 c63 65 147 124 176 124 23 0 128 -78 226 -169 50 -47 104 -110 141 -166 32 -50 78 -114 101 -142 l41 -53 69 0 c99 0 101 2 101 71 0 99 -32 152 -135 227 -133 96 -145 110 -208 241 l-59 124 23 18 c36 27 165 89 254 121 106 39 166 75 248 148 82 73 110 85 235 105 78 12 117 25 197 65 95 47 203 129 225 171 9 16 2 15 -52 -10 -150 -67 -266 -97 -418 -110 -137 -11 -176 -23 -340 -107 l-125 -64 79 0 79 0 -24 -26 c-41 -44 -100 -80 -281 -170 -119 -60 -228 -105 -350 -145 -97 -33 -180 -59 -184 -59 -14 0 25 35 180 163 337 278 502 393 705 490 75 37 93 41 195 49 62 4 130 14 152 22 l39 15 -60 0 c-80 2 -184 24 -252 56 -60 27 -153 91 -153 105 0 20 78 21 311 5 231 -15 401 -13 382 6 -11 11 -181 53 -421 104 -112 24 -206 45 -208 48 -2 2 60 20 138 41 146 38 253 82 285 119 18 20 18 20 -24 13 -50 -7 -73 10 -66 48 7 34 -5 33 -64 -8 l-50 -34 -26 76 c-14 42 -29 92 -32 110 -8 39 -21 33 -46 -22 -14 -31 -17 -54 -12 -93 3 -29 2 -53 -3 -53 -5 0 -21 21 -36 48 -28 49 -74 99 -84 90 -3 -3 2 -34 11 -69 35 -132 5 -213 -85 -229 -63 -12 -110 6 -189 71 -40 32 -74 59 -75 59 -2 0 6 -26 16 -57 15 -44 18 -71 13 -113 -14 -118 -39 -164 -199 -380 -194 -261 -240 -330 -305 -461 -63 -129 -122 -198 -191 -228 -28 -12 -118 -37 -200 -56 -162 -37 -188 -48 -309 -129 -90 -60 -129 -73 -162 -55 -14 7 -43 9 -81 5 -37 -3 -57 -2 -53 4 3 5 -6 12 -20 16 -23 6 -26 11 -23 43 3 41 -17 33 228 86 135 29 181 49 310 133 47 30 126 74 175 97 50 23 95 49 102 56 7 8 34 60 62 114 27 55 72 136 101 180 28 44 64 108 81 142 39 82 214 607 234 703 10 50 22 81 36 92 27 23 139 57 210 65 l57 6 -48 73 c-102 157 -154 332 -148 506 1 59 0 108 -3 108 -3 0 -17 -12 -30 -27z m-391 -882 c11 -6 10 -24 -2 -97 -8 -49 -29 -188 -46 -309 -64 -452 -92 -566 -158 -627 -40 -38 -59 -45 -188 -73 -230 -50 -354 -93 -458 -159 -31 -20 -58 -36 -61 -36 -2 0 3 19 12 43 22 60 22 232 -1 412 -25 199 -21 221 83 385 108 170 173 240 264 284 40 19 104 46 143 60 39 15 108 49 155 76 81 47 87 49 164 49 44 0 86 -3 93 -8z m-973 -1059 c-2 -2 -13 1 -24 8 -20 10 -21 8 -21 -30 0 -47 -9 -66 -58 -130 l-35 -45 5 48 c3 26 30 105 59 177 l54 130 12 -77 c7 -43 11 -79 8 -81z m973 -240 c9 -6 5 -18 -16 -48 -80 -110 -257 -214 -365 -214 l-40 0 6 50 c6 49 6 50 -16 39 -12 -7 -44 -33 -72 -59 -91 -84 -114 -99 -200 -125 -91 -28 -95 -31 -150 -138 -26 -50 -68 -73 -102 -58 -21 10 -24 16 -18 39 12 50 48 111 96 166 45 50 56 56 196 109 197 75 657 246 663 246 3 1 11 -3 18 -7z" id="svg_4" filter="url(#f031)" opacity="1" fill="#ffffff" fill-opacity="1"/>
</g></g><defs><filter id="f031" inkscape:label="Invert" xmlns:inkscape="http://www.inkscape.org/namespaces/inkscape" x="0" y="0" width="1" height="1" inkscape:menu="Color" inkscape:menu-tooltip="Invert colors" color-interpolation-filters="sRGB">
            <feColorMatrix type="saturate" values="1" result="fbSourceGraphic"/>
            <feColorMatrix in="fbSourceGraphic" values="-1 0 0 0 1 0 -1 0 0 1 0 0 -1 0 1 0 0 0 1 0 "/>
        </filter></defs></svg>