<?xml version="1.0" standalone="no"?>
<!DOCTYPE svg PUBLIC "-//W3C//DTD SVG 20010904//EN"
 "http://www.w3.org/TR/2001/REC-SVG-20010904/DTD/svg10.dtd">
<svg version="1.0" xmlns="http://www.w3.org/2000/svg"
 width="1896.000000pt" height="1359.000000pt" viewBox="0 0 1896.000000 1359.000000"
 preserveAspectRatio="xMidYMid meet">

<g transform="translate(0.000000,1359.000000) scale(0.100000,-0.100000)"
fill="#FFFFFF" stroke="#FFFFFF">
<path d="M18580 13330 c0 -4 -16 -4 -35 -2 -23 3 -35 0 -35 -8 0 -10 -3 -10
-14 -1 -9 7 -28 10 -48 6 -18 -3 -105 -7 -193 -9 -88 -1 -165 -5 -172 -9 -18
-12 -135 -17 -153 -7 -10 5 -21 6 -25 2 -3 -4 -120 -7 -258 -8 -139 0 -263 -3
-276 -7 -52 -14 -363 -9 -373 7 -5 8 -11 7 -20 -2 -15 -15 -28 -16 -28 -1 0 5
5 7 12 3 7 -5 8 -3 3 6 -6 10 -11 10 -20 -3 -9 -12 -27 -17 -64 -17 -28 0 -51
-5 -51 -10 0 -7 -7 -7 -22 1 -12 7 -41 9 -68 6 -30 -4 -52 -1 -59 6 -13 13
-72 17 -65 5 5 -7 -43 -2 -74 8 -7 2 -38 -5 -69 -16 -32 -11 -59 -16 -62 -11
-7 12 -81 10 -81 -1 0 -5 -8 -5 -17 1 -11 5 -26 6 -42 0 -16 -7 -34 -6 -52 1
-16 7 -62 9 -123 6 -82 -5 -96 -3 -96 10 0 8 -4 12 -10 9 -14 -9 -122 -16
-143 -9 -9 3 -14 10 -11 16 4 6 -1 6 -14 -1 -13 -7 -29 -8 -44 -2 -13 5 -33 5
-47 -1 -17 -6 -27 -5 -33 4 -6 11 -8 11 -8 0 0 -9 -5 -10 -18 -3 -12 6 -43 6
-87 -1 -105 -15 -177 -18 -190 -8 -6 5 -22 7 -36 4 -46 -10 -94 -11 -100 -2
-3 5 -20 10 -37 11 -18 1 -32 6 -32 11 0 6 -5 5 -12 -2 -15 -15 -75 -16 -80
-2 -4 13 -64 16 -97 5 -16 -5 -21 -4 -17 4 4 6 2 11 -3 11 -6 0 -11 -4 -11 -9
0 -8 -78 -15 -143 -13 -16 1 -40 -6 -53 -14 -19 -13 -24 -14 -24 -3 0 10 -12
13 -42 11 -24 -1 -82 -3 -130 -4 -49 -1 -88 -5 -88 -9 0 -5 -60 -6 -132 -3
-157 6 -351 5 -381 -3 -26 -6 -77 -10 -202 -18 -197 -11 -237 -15 -246 -21
-10 -6 -356 -18 -386 -13 -22 4 -116 -3 -105 -8 6 -2 9 -9 6 -14 -4 -6 -10 -6
-17 -1 -17 14 -87 32 -87 23 0 -5 -54 -8 -119 -8 -66 1 -118 3 -116 7 5 7
-156 3 -205 -5 -19 -3 -50 -11 -68 -18 -26 -9 -35 -9 -41 1 -8 13 -41 6 -41
-8 0 -5 -18 -6 -40 -4 -69 8 -161 10 -165 3 -2 -3 -50 -5 -107 -4 -57 1 -133
-1 -170 -4 -38 -4 -68 -3 -68 1 0 3 -14 2 -32 -3 -20 -5 -46 -5 -68 1 -21 6
-49 6 -66 1 -16 -4 -80 -7 -143 -5 -70 1 -109 -1 -100 -6 15 -10 -36 -7 -81 4
-39 9 -170 15 -170 6 0 -4 -13 -6 -30 -5 -16 1 -30 -1 -30 -5 0 -4 -6 -7 -12
-7 -7 -1 -44 -4 -83 -8 -114 -11 -185 -12 -185 -3 0 4 -5 8 -11 8 -5 0 -7 -6
-3 -12 6 -10 4 -10 -7 0 -15 14 -56 16 -61 3 -2 -6 -21 -6 -45 -2 -26 5 -40 5
-37 -1 4 -5 -2 -9 -12 -7 -43 5 -204 -14 -204 -25 0 -7 -3 -6 -9 2 -9 16 -23
16 -121 1 -41 -6 -156 -12 -255 -13 -99 -1 -184 -4 -190 -7 -20 -12 -117 -10
-131 2 -12 10 -15 10 -12 -2 2 -11 -25 -14 -147 -16 -82 -1 -155 -5 -162 -8
-7 -2 -13 0 -13 5 0 5 -18 3 -39 -5 -22 -7 -42 -11 -45 -8 -8 8 -223 6 -236
-2 -6 -4 -17 -1 -25 5 -8 7 -15 8 -15 3 0 -5 -27 -7 -60 -5 -34 2 -69 1 -78
-3 -33 -15 -58 -17 -189 -15 -73 0 -133 -3 -133 -7 0 -11 -113 -4 -124 8 -13
12 -29 12 -21 -1 3 -5 3 -10 -2 -11 -4 0 -17 -3 -28 -5 -11 -3 -105 -7 -210
-9 -104 -2 -205 -6 -222 -9 -18 -3 -33 -1 -33 4 0 5 -28 7 -67 4 -38 -3 -138
-8 -223 -10 -195 -4 -285 -10 -299 -18 -6 -4 -11 -1 -11 6 0 8 -3 9 -8 2 -7
-11 -10 -11 -400 -15 -139 -2 -255 -6 -257 -9 -4 -6 -170 -5 -327 4 -73 3
-108 2 -108 -5 0 -6 -6 -9 -12 -6 -7 2 -12 9 -11 14 1 5 -4 10 -12 10 -8 0
-12 -3 -11 -6 2 -3 -55 -5 -127 -3 -73 1 -141 2 -152 1 -34 -2 -48 -1 -128 4
-64 4 -77 2 -77 -10 0 -12 -7 -14 -32 -8 -18 3 -40 8 -48 10 -8 1 -24 -5 -34
-14 -16 -13 -19 -14 -14 -1 5 13 -10 15 -105 13 -66 -1 -113 -6 -115 -12 -4
-13 -81 -3 -100 12 -10 8 -16 7 -23 -4 -5 -8 -9 -9 -9 -2 0 6 -8 10 -17 9 -10
-2 -36 2 -59 9 -23 7 -49 9 -62 4 -14 -5 -22 -4 -22 3 0 7 -6 6 -16 -3 -17
-14 -144 -25 -144 -12 0 4 -24 7 -53 6 -28 -1 -122 -4 -207 -7 -182 -7 -289
-16 -295 -26 -3 -4 -24 -1 -47 7 -42 14 -93 13 -178 -3 -24 -5 -31 -4 -26 4 5
9 -25 11 -118 8 -69 -1 -126 0 -126 5 0 4 -29 6 -64 5 -41 -1 -62 2 -58 9 3 5
-1 5 -9 -1 -8 -7 -25 -11 -39 -10 -14 1 -33 -2 -43 -6 -11 -6 -17 -5 -17 4 0
9 -3 9 -10 -2 -9 -13 -11 -13 -20 0 -5 8 -10 11 -10 5 0 -5 -18 -10 -39 -10
-22 -1 -38 2 -36 5 5 7 -143 3 -188 -5 -16 -3 -26 -1 -22 5 9 15 -79 8 -98 -8
-14 -12 -22 -13 -40 -4 -16 9 -93 11 -272 7 -137 -2 -261 -6 -275 -9 -14 -2
-27 -5 -30 -5 -3 -1 2 -6 10 -12 12 -9 12 -10 -3 -5 -10 3 -23 6 -28 6 -5 0
-8 5 -6 11 1 6 -25 11 -65 14 -37 1 -71 6 -77 10 -6 3 -11 1 -11 -6 0 -10 -3
-10 -11 -2 -7 7 -22 8 -42 3 -39 -10 -137 -10 -137 0 0 10 -91 7 -108 -3 -6
-5 -12 -5 -12 0 0 4 -5 1 -10 -7 -5 -8 -10 -10 -10 -5 0 6 -33 10 -77 10 -108
1 -176 7 -190 18 -9 6 -13 5 -13 -2 0 -6 -16 -11 -35 -11 -19 0 -35 4 -35 8 0
5 -28 9 -62 10 -84 1 -149 10 -163 22 -7 5 -14 7 -18 4 -10 -11 -77 -13 -77
-3 0 6 -9 8 -20 4 -11 -3 -34 1 -52 9 -34 15 -138 18 -138 4 0 -4 -7 -8 -16
-8 -9 0 -12 5 -8 13 6 9 3 8 -8 -1 -9 -8 -25 -12 -35 -11 -10 2 -27 -2 -38 -8
-27 -14 -77 -14 -68 1 4 6 -1 5 -10 -3 -9 -7 -17 -10 -17 -7 0 4 -10 1 -22 -6
-13 -7 -25 -12 -28 -11 -3 0 -17 3 -32 7 -24 5 -31 1 -59 -41 -21 -30 -28 -48
-21 -51 7 -2 12 -12 12 -22 0 -10 7 -20 15 -24 8 -3 15 -10 15 -16 0 -15 25
-40 39 -40 6 0 11 -4 11 -10 0 -5 -8 -10 -17 -10 -14 0 -15 -2 -4 -9 8 -6 -2
-8 -30 -8 -58 2 -106 -19 -113 -48 -3 -13 -3 -46 0 -72 11 -84 6 -110 -31
-158 -19 -26 -30 -53 -33 -86 -2 -27 -8 -47 -12 -44 -4 3 -10 -5 -14 -18 -3
-12 -1 -24 5 -25 6 -3 6 -9 -2 -18 -6 -7 -9 -21 -5 -29 8 -21 -23 -95 -40 -95
-7 0 -11 -6 -8 -13 2 -7 -5 -22 -16 -34 -11 -12 -20 -27 -20 -33 0 -5 -5 -10
-11 -10 -8 0 -8 -5 1 -15 12 -14 7 -20 -14 -16 -5 1 -4 -5 3 -13 7 -8 9 -20 5
-27 -9 -15 -37 50 -30 73 2 10 0 18 -5 18 -5 0 -9 10 -9 23 -1 20 -29 82 -30
64 0 -17 -31 24 -34 45 -4 31 -29 88 -38 88 -4 0 -14 13 -23 29 -8 16 -28 39
-43 50 l-29 20 -41 -20 c-53 -27 -61 -37 -62 -85 -1 -44 7 -151 12 -173 5 -24
50 -71 61 -64 6 3 7 1 4 -4 -4 -6 0 -16 8 -23 8 -7 15 -19 15 -27 0 -8 4 -12
9 -8 11 6 24 -49 25 -105 1 -19 4 -38 8 -41 5 -3 9 -35 10 -72 1 -36 5 -64 10
-61 5 3 8 -16 8 -43 -1 -55 9 -136 19 -143 24 -19 34 -69 46 -240 3 -30 7 -68
11 -85 4 -16 7 -55 8 -87 0 -31 4 -54 9 -51 4 2 7 -27 6 -65 -1 -39 1 -74 3
-78 3 -5 3 -29 -1 -54 -5 -38 -3 -47 18 -68 15 -15 21 -30 17 -45 -3 -11 0
-27 5 -34 15 -18 24 -173 10 -173 -14 0 -14 -92 -1 -141 21 -76 39 -654 22
-686 -5 -8 -6 -32 -2 -53 4 -21 4 -44 0 -50 -4 -6 -5 -50 -2 -98 7 -129 5
-150 -13 -169 -14 -13 -15 -27 -10 -77 7 -59 11 -86 15 -96 1 -3 3 -9 4 -15 1
-5 5 -20 9 -32 5 -15 1 -39 -14 -73 -12 -29 -22 -57 -21 -64 2 -31 1 -113 -4
-221 -3 -66 -6 -158 -7 -205 -1 -47 -4 -87 -7 -90 -23 -19 -37 -137 -21 -168
5 -10 5 -43 1 -77 -5 -33 -11 -94 -13 -136 -3 -48 -10 -84 -21 -102 -21 -32
-35 -242 -18 -273 8 -14 6 -27 -8 -54 -28 -57 -33 -103 -36 -335 -1 -121 -5
-236 -9 -255 -5 -31 -15 -223 -17 -350 -1 -25 6 -88 15 -140 9 -52 14 -96 12
-98 -2 -3 2 -17 10 -32 12 -24 12 -30 1 -40 -9 -7 -14 -33 -15 -74 0 -34 -4
-74 -9 -87 -6 -14 -6 -47 -1 -79 13 -83 5 -481 -11 -510 -15 -28 -16 -188 -1
-203 6 -6 11 -53 11 -107 0 -73 -4 -101 -17 -119 -18 -27 -34 -207 -21 -242
28 -74 29 -586 2 -814 -8 -66 -14 -148 -14 -182 0 -34 -4 -73 -10 -87 -5 -14
-10 -72 -11 -128 -1 -64 -7 -111 -15 -123 -21 -34 -36 -149 -32 -247 3 -62 1
-105 -8 -128 -9 -23 -14 -105 -17 -240 -2 -113 -8 -216 -14 -230 -6 -14 -11
-29 -11 -33 0 -4 -7 -18 -16 -31 -21 -33 -31 -139 -17 -174 14 -32 16 -160 7
-327 -4 -72 -2 -146 4 -185 15 -93 17 -214 4 -231 -7 -8 -15 -34 -18 -58 -3
-24 -10 -49 -16 -56 -6 -7 -8 -88 -4 -221 3 -115 5 -222 3 -239 -1 -16 -3 -74
-3 -127 0 -92 1 -100 29 -139 17 -23 45 -49 62 -58 37 -18 42 -44 16 -81 -9
-13 -19 -42 -21 -64 -2 -23 -8 -42 -13 -44 -5 -2 -9 -14 -9 -27 0 -13 -4 -26
-9 -29 -4 -3 -7 -21 -6 -40 1 -23 -4 -37 -13 -41 -12 -4 -14 -19 -8 -78 4 -39
9 -108 12 -152 3 -44 7 -87 10 -95 3 -8 8 -33 11 -55 8 -58 55 -135 82 -135 6
0 11 -4 11 -9 0 -8 25 -17 70 -27 44 -10 236 -5 300 7 57 11 78 14 215 28 94
10 96 11 155 39 25 12 54 20 65 19 11 -1 20 4 20 13 0 26 125 30 193 7 28 -10
71 -13 129 -11 48 2 97 4 108 4 166 2 199 -6 289 -67 95 -65 198 -22 156 65
-7 15 -15 36 -17 47 -4 24 -62 85 -80 85 -7 0 -13 4 -13 8 0 12 -54 40 -67 35
-7 -3 -13 0 -13 7 0 6 -4 9 -9 5 -5 -3 -12 -1 -15 4 -9 13 4 42 15 35 6 -3 16
-1 23 5 8 6 27 12 42 12 222 1 373 8 390 17 12 6 24 9 27 5 3 -3 14 -2 24 1
10 4 18 6 18 5 0 -1 10 3 23 10 25 14 142 22 306 21 60 0 137 4 170 10 34 5
84 10 111 11 28 1 57 8 66 16 11 9 49 13 132 14 64 0 119 4 122 9 3 5 12 7 19
4 8 -3 17 -1 20 4 3 5 17 7 31 4 14 -2 31 0 38 6 6 6 44 13 82 16 100 9 262
26 315 32 42 5 87 8 285 19 137 8 169 11 194 22 13 5 41 8 62 6 21 -2 49 2 61
9 13 7 57 14 98 15 41 2 103 5 138 6 35 2 66 8 70 14 4 7 46 14 97 16 50 3
110 8 135 11 25 3 131 8 235 10 105 2 190 5 190 6 0 2 36 9 70 12 17 2 36 8
43 15 7 7 19 10 27 6 9 -3 21 0 28 5 8 7 62 11 132 11 66 0 127 1 135 3 8 3
30 8 47 12 18 4 33 13 33 19 0 8 4 7 12 -1 13 -13 268 -18 268 -4 0 9 128 8
159 -3 16 -5 21 -4 17 4 -8 12 17 14 159 12 44 0 94 4 110 9 17 5 68 12 115
15 118 7 131 9 145 29 11 15 19 16 52 7 51 -14 185 -14 220 1 15 6 50 13 77
15 27 2 63 11 80 20 28 15 128 23 309 23 20 0 37 4 37 9 0 10 119 22 254 27
56 1 102 7 106 13 3 6 35 10 76 9 133 -3 251 7 269 22 14 12 19 12 22 3 6 -17
41 -16 59 1 9 10 26 13 49 9 20 -3 41 -1 48 6 8 6 16 8 19 6 10 -10 68 -14 63
-4 -4 5 10 9 29 9 19 0 37 3 39 7 3 5 81 7 174 6 92 -1 204 3 248 9 100 13
131 16 280 23 66 4 127 9 135 12 8 2 116 6 240 8 124 2 225 5 225 6 0 1 36 3
80 4 44 2 127 7 185 10 58 4 159 9 225 12 66 3 122 8 125 11 3 4 25 7 50 8 25
0 72 3 105 6 33 2 72 1 88 -3 15 -4 27 -4 27 1 0 5 10 6 23 2 21 -7 183 -7
297 1 30 2 66 0 79 -5 15 -5 28 -5 35 2 5 5 28 10 50 10 40 0 106 18 116 32 3
4 30 3 60 -3 79 -14 304 -20 378 -9 44 6 71 5 89 -3 18 -8 29 -8 44 1 10 7 33
12 49 12 18 0 29 4 25 10 -8 12 -3 13 28 1 35 -14 142 -14 297 -2 74 6 254 13
400 15 167 3 266 8 268 15 2 7 12 6 28 -1 16 -7 32 -8 47 -2 25 11 253 10 310
-1 23 -5 37 -4 37 3 0 14 794 3 896 -13 26 -4 52 -2 65 5 16 9 37 9 83 1 33
-6 179 -13 323 -15 144 -3 270 -9 280 -14 27 -15 35 -15 44 0 7 11 12 11 30 0
12 -8 42 -16 68 -19 25 -3 78 -9 116 -13 39 -5 82 -11 98 -15 15 -4 27 -3 27
1 0 21 275 17 304 -4 6 -4 27 -9 46 -11 19 -1 47 -7 62 -14 23 -10 25 -15 20
-46 -4 -24 -2 -32 6 -27 7 4 12 1 12 -8 0 -9 7 -17 15 -17 8 -1 21 -2 28 -3
16 -2 40 32 34 48 -4 10 5 16 28 20 19 4 38 12 42 19 16 25 41 37 89 42 27 4
69 13 94 21 35 12 96 16 275 16 229 1 310 -5 321 -23 3 -6 11 -6 17 -1 12 8
46 14 77 13 119 -5 304 -1 309 7 3 6 57 12 119 14 61 2 112 6 112 10 0 4 18 1
40 -7 25 -9 49 -11 63 -6 12 4 90 9 172 10 195 3 256 6 278 16 9 4 33 4 53 0
24 -4 34 -3 29 4 -3 6 -2 11 4 11 5 0 15 16 21 36 11 31 10 38 -6 52 -29 27
-129 44 -239 42 -55 -1 -116 -1 -135 0 -76 2 -385 -6 -385 -10 0 -1 -29 -4
-65 -6 -36 -3 -76 -9 -90 -14 -14 -5 -59 -7 -100 -5 -41 2 -136 7 -210 9 -288
11 -405 19 -417 28 -8 6 -38 8 -75 3 -73 -8 -76 -8 -187 -1 -46 3 -81 3 -78 0
13 -13 -14 -44 -38 -44 -13 0 -27 -4 -30 -10 -8 -12 -102 -13 -109 -1 -5 8
-121 24 -161 21 -11 0 -87 -3 -170 -5 -82 -2 -172 -7 -198 -9 -31 -4 -59 -1
-75 8 -27 13 -74 23 -142 31 -19 2 -66 9 -105 14 -38 5 -71 6 -73 1 -2 -4 -16
-4 -33 0 -16 5 -32 9 -34 9 -3 1 -7 2 -10 2 -13 4 -70 6 -170 9 -60 2 -121 6
-135 10 -14 4 -71 2 -125 -5 -55 -7 -103 -12 -106 -10 -3 2 -27 5 -55 6 -27 1
-53 5 -59 8 -5 3 -57 6 -115 7 -58 1 -208 5 -335 9 -126 4 -250 8 -275 7 -25
0 -209 -3 -410 -5 -201 -3 -376 -8 -390 -11 -14 -3 -75 -8 -136 -10 -69 -3
-124 -10 -148 -20 -21 -9 -52 -14 -69 -12 -129 17 -147 17 -174 4 -17 -9 -55
-13 -98 -12 -38 1 -175 5 -302 8 -224 6 -310 0 -337 -25 -5 -4 -18 -3 -28 2
-11 6 -29 13 -41 15 -41 10 -178 4 -200 -8 -14 -7 -62 -10 -137 -8 -161 4
-272 3 -338 -5 -31 -3 -123 -8 -204 -9 -98 -2 -152 -7 -162 -15 -9 -7 -38 -11
-70 -10 -30 1 -61 -2 -68 -8 -12 -10 -461 -18 -810 -14 -78 1 -135 -4 -175
-15 -38 -10 -113 -17 -218 -19 -159 -4 -325 -14 -336 -20 -3 -2 -50 -5 -105
-6 -58 -1 -116 -8 -139 -16 -22 -9 -75 -16 -118 -18 -42 -1 -83 -7 -90 -12 -6
-6 -30 -8 -52 -6 -22 2 -44 4 -50 3 -5 0 -80 -2 -167 -4 -86 -2 -161 -7 -167
-10 -16 -10 -105 -25 -186 -30 -38 -3 -95 -15 -125 -26 -42 -15 -79 -20 -162
-20 -65 0 -108 -4 -110 -10 -2 -7 -46 -11 -116 -11 -61 0 -112 -3 -112 -7 0
-4 -42 -8 -92 -8 -95 -1 -214 -24 -256 -50 -12 -8 -27 -12 -32 -9 -8 5 -151
16 -215 16 -26 1 -47 -4 -63 -15 -8 -4 -100 -9 -205 -11 -162 -2 -329 -15
-545 -42 -25 -3 -48 0 -57 7 -10 9 -19 9 -36 0 -12 -7 -78 -14 -147 -16 -68
-2 -130 -8 -136 -13 -6 -5 -58 -12 -116 -15 -58 -3 -135 -11 -173 -19 -37 -8
-127 -15 -200 -15 -110 -2 -183 -6 -252 -16 -5 -1 -15 -4 -20 -8 -6 -3 -51 -7
-100 -9 -50 -2 -93 -7 -96 -11 -11 -16 -193 -39 -349 -43 -85 -3 -175 -8 -200
-11 -25 -4 -70 -8 -100 -9 -97 -3 -190 -18 -200 -30 -7 -9 -21 -10 -47 -5 -48
11 -279 0 -303 -15 -4 -3 -35 -7 -67 -10 -32 -2 -85 -11 -118 -20 -34 -10
-111 -18 -180 -20 -66 -2 -142 -5 -170 -6 -27 -1 -53 -6 -57 -13 -4 -6 -26
-12 -50 -13 -24 -1 -101 -5 -173 -8 -71 -4 -152 -11 -180 -16 -27 -6 -61 -12
-75 -14 -14 -2 -25 -4 -25 -5 0 -1 -25 -4 -55 -5 -30 -2 -66 -6 -80 -9 -14 -3
-65 -8 -115 -11 -134 -10 -140 -10 -153 -19 -7 -4 -37 -10 -67 -13 -30 -3 -52
-10 -49 -14 5 -9 -31 -13 -69 -9 -10 1 -24 -4 -32 -10 -9 -7 -40 -10 -84 -7
-61 3 -73 1 -83 -15 -9 -13 -29 -21 -63 -24 -27 -3 -68 -10 -90 -15 -22 -6
-47 -11 -55 -11 -8 0 -20 -5 -26 -10 -6 -4 -19 -5 -29 -2 -9 4 -20 3 -24 -2
-3 -5 -37 -24 -74 -42 -37 -18 -66 -36 -63 -41 3 -4 -5 -17 -19 -29 -13 -11
-25 -16 -27 -11 -2 6 -15 2 -28 -9 -30 -23 -53 -29 -150 -38 -156 -15 -230 -6
-231 29 0 12 -2 31 -4 42 -22 144 -24 216 -8 255 3 8 7 20 9 25 23 82 29 115
27 143 -2 18 2 32 8 32 6 0 9 7 5 15 -3 8 -1 15 4 15 6 0 10 7 10 15 0 8 5 15
10 15 6 0 10 7 10 15 0 8 5 15 11 15 6 0 8 7 5 16 -3 8 -2 12 3 9 5 -3 12 4
16 15 3 11 11 20 16 20 6 0 7 5 4 11 -4 6 2 13 14 16 12 3 20 10 19 17 -1 6 6
28 15 50 19 43 22 127 7 157 -6 10 -19 19 -29 19 -25 0 -81 -29 -88 -46 -3 -8
-15 -14 -28 -14 -23 0 -36 22 -49 83 -7 30 4 141 12 119 3 -10 8 -10 22 3 16
15 20 14 47 -14 17 -16 49 -34 72 -41 23 -6 62 -20 88 -31 53 -22 97 -30 203
-35 41 -2 95 -6 120 -10 61 -10 167 -6 190 6 10 5 67 12 127 15 59 3 132 8
161 10 50 5 53 4 63 -22 5 -15 9 -70 9 -123 -1 -52 0 -106 3 -120 2 -14 5 -28
6 -32 0 -5 8 -8 17 -8 8 0 13 -4 10 -9 -6 -9 51 -27 69 -22 6 2 21 5 35 7 14
3 33 14 43 25 9 12 17 17 17 13 1 -22 29 58 30 88 3 48 1 58 -9 55 -5 -1 -10
3 -11 8 -1 6 -5 15 -10 20 -4 6 -7 26 -6 45 1 19 3 49 4 67 2 40 25 63 63 63
16 0 37 8 47 18 10 10 53 35 96 56 43 21 75 41 72 44 -7 6 61 41 80 42 23 0
74 32 74 46 0 10 12 14 40 14 22 0 40 4 40 9 0 10 46 9 56 -2 3 -3 -1 -20 -10
-38 -9 -18 -16 -38 -16 -46 0 -7 -5 -13 -11 -13 -7 0 -8 -16 -3 -46 5 -39 4
-47 -14 -59 -15 -11 -21 -29 -24 -80 -2 -37 -8 -69 -14 -73 -27 -20 -38 -113
-19 -172 12 -37 89 -36 100 1 4 10 13 26 22 34 8 9 22 41 30 72 13 50 28 84
62 143 24 41 33 71 28 89 -5 21 14 46 26 34 4 -3 7 14 7 40 0 25 4 48 8 51 5
3 9 24 11 48 2 48 5 66 14 88 3 8 9 31 12 50 9 51 9 52 33 98 12 23 22 50 22
60 0 9 7 29 14 44 34 65 46 222 22 293 -14 40 -15 56 -4 113 6 37 11 70 10 74
-9 37 -9 143 0 149 9 6 9 17 0 46 -7 21 -14 52 -16 68 -4 32 -39 131 -49 142
-4 3 -7 25 -7 47 0 35 -20 150 -50 291 -12 58 -29 110 -45 142 -8 15 -15 33
-15 39 0 6 -7 17 -15 24 -9 7 -14 15 -11 17 2 2 -13 32 -34 66 -35 57 -40 62
-71 59 -35 -3 -84 -46 -73 -65 5 -8 3 -8 -7 0 -20 20 -29 16 -29 -13 0 -16 4
-23 12 -18 6 4 8 3 5 -3 -3 -5 1 -32 9 -59 8 -27 21 -86 28 -132 11 -69 11
-84 0 -89 -7 -2 -18 -2 -24 2 -6 4 -52 9 -102 11 -96 4 -118 -2 -172 -49 -17
-14 -33 -24 -37 -21 -14 8 -39 -8 -39 -27 0 -12 -5 -16 -15 -13 -9 4 -15 0
-15 -9 0 -24 -28 -29 -40 -6 -6 10 -9 23 -6 28 9 14 -14 135 -34 177 -11 22
-20 48 -20 57 0 9 -5 19 -10 22 -6 3 -10 16 -10 28 0 12 -11 39 -25 59 -14 20
-25 41 -25 45 0 12 -44 98 -52 101 -5 2 -8 8 -8 14 0 15 -43 63 -57 63 -6 0
-15 -3 -19 -8 -4 -4 -20 -7 -36 -7 -36 0 -96 -55 -104 -97 -4 -20 1 -45 13
-74 11 -24 23 -56 26 -70 5 -21 13 -27 32 -25 14 0 27 7 30 13 2 7 11 10 20 7
10 -4 14 -13 10 -22 -3 -9 -3 -13 1 -9 9 9 34 -39 39 -77 12 -95 15 -131 16
-226 1 -133 1 -130 -13 -130 -7 0 -22 -14 -33 -30 -15 -23 -28 -30 -51 -30
-17 0 -37 -6 -43 -14 -7 -8 -32 -21 -56 -30 -40 -13 -97 -49 -133 -84 -7 -6
-21 -12 -29 -12 -9 0 -41 -25 -71 -56 -47 -48 -56 -63 -58 -96 -2 -54 15 -95
52 -123 29 -22 98 -36 119 -23 6 3 36 0 67 -7 32 -6 63 -8 70 -3 19 12 53 10
82 -6 23 -12 46 -13 81 -6 40 9 41 5 37 -133 -2 -72 -6 -226 -8 -342 -6 -264
-6 -255 -29 -284 -41 -51 -65 -72 -75 -66 -5 3 -20 0 -32 -6 -22 -12 -50 -19
-75 -19 -32 0 -42 0 -108 -5 -38 -3 -79 -5 -90 -5 -40 2 -47 1 -130 -17 -52
-11 -59 -12 -69 -5 -16 10 -74 20 -227 40 -33 4 -71 18 -93 32 -35 25 -46 40
-26 40 6 0 10 7 10 15 0 8 4 15 9 15 5 0 12 8 16 18 3 11 17 24 31 30 13 7 30
16 37 22 49 41 114 90 122 92 19 5 51 53 53 81 2 25 -1 27 -36 27 -53 0 -82
10 -82 28 0 8 -3 12 -7 9 -3 -4 -16 4 -27 16 l-22 23 -28 -33 c-16 -18 -33
-30 -37 -27 -16 9 -119 -45 -119 -63 0 -9 -3 -14 -6 -11 -3 4 -15 -3 -26 -14
-15 -15 -18 -27 -13 -56 5 -30 2 -42 -17 -62 -18 -20 -23 -35 -22 -76 1 -44
-2 -53 -18 -57 -10 -3 -18 -9 -17 -14 1 -4 1 -19 0 -33 -2 -24 -2 -24 -17 -5
-8 11 -12 25 -10 32 3 7 1 13 -5 13 -6 0 -8 7 -5 16 4 9 9 48 12 86 5 68 13
116 33 208 8 40 6 753 -3 880 -1 25 1 56 6 70 6 14 12 97 15 185 3 88 9 162
13 165 4 3 8 25 8 50 3 87 14 185 23 196 7 9 11 118 9 262 0 12 4 22 8 22 4 0
8 24 10 54 1 30 8 69 16 88 13 31 24 122 31 251 1 30 5 58 8 63 25 42 40 760
17 804 -13 25 -15 277 -2 293 6 7 10 31 10 54 1 24 4 49 9 55 4 7 9 94 10 193
2 195 4 229 21 290 14 50 8 458 -7 497 -9 24 -11 74 -8 233 0 22 -3 83 -7 135
-8 102 -8 167 0 215 10 66 13 121 19 400 3 160 7 299 9 310 1 11 6 56 10 100
4 44 9 94 11 110 2 17 7 77 10 135 4 58 13 132 22 165 8 33 17 101 20 150 2
50 8 104 14 122 9 27 10 88 8 328 0 95 2 120 11 123 6 2 8 17 4 37 -3 18 -1
66 5 106 11 74 19 159 26 299 2 41 6 98 8 125 6 62 21 432 20 500 -1 125 -15
375 -23 420 -5 28 -9 161 -8 296 0 135 -2 251 -6 258 -7 11 -18 56 -19 79 0 6
-4 12 -9 12 -4 0 -8 11 -8 24 0 13 -7 29 -15 36 -12 10 -14 36 -11 144 2 72
-1 156 -6 186 -10 64 -19 142 -22 185 0 17 -7 35 -15 41 -12 9 -11 12 3 17 10
4 22 5 27 1 5 -3 9 0 9 6 0 14 25 40 39 40 14 0 20 28 16 73 -2 25 1 37 10 37
16 0 26 51 13 67 -5 7 -6 22 -2 35 4 13 7 26 6 31 -1 4 3 7 9 7 5 0 8 3 6 8
-5 7 24 38 33 35 3 -1 4 5 2 13 -2 9 2 21 8 29 8 10 8 15 0 20 -6 4 -9 14 -6
22 4 9 2 11 -6 7 -8 -5 -9 5 -5 36 3 24 10 46 16 50 10 6 13 17 27 103 4 21
12 37 20 37 10 0 12 11 7 46 l-5 46 25 -17 c25 -16 26 -15 38 7 8 13 14 37 15
53 0 17 2 44 3 62 0 17 8 38 16 47 8 8 15 19 15 25 0 6 5 11 10 11 6 0 10 5
10 11 0 5 -5 7 -12 3 -8 -5 -9 -2 -5 9 3 10 2 17 -3 17 -6 0 -10 6 -10 14 0 8
8 13 18 11 9 -1 22 1 27 5 6 3 19 7 30 7 30 2 49 7 56 15 3 5 17 9 31 10 15 1
25 5 22 9 -6 10 22 19 56 19 16 0 32 5 35 10 3 6 21 10 40 10 19 0 37 5 40 11
4 6 13 8 20 5 7 -2 24 2 38 9 15 7 42 12 62 11 19 -2 35 1 35 6 0 5 4 7 9 3 5
-3 12 -1 15 3 3 5 16 9 28 8 13 -1 29 4 36 11 20 20 89 20 107 1 7 -8 5 -9 -6
-5 -13 4 -15 -1 -13 -21 2 -15 4 -44 5 -64 1 -21 5 -38 8 -38 3 0 11 -11 18
-25 6 -14 8 -25 3 -25 -4 0 -10 -9 -13 -20 -3 -14 1 -24 15 -31 28 -15 78 7
78 33 0 28 32 120 48 136 7 8 10 17 7 22 -3 4 10 23 28 42 l32 34 100 -3 c270
-7 325 -7 325 1 0 11 154 0 178 -13 10 -6 27 -10 38 -10 75 -2 132 -9 152 -20
24 -13 66 -6 57 10 -4 5 3 9 14 9 10 0 21 5 23 11 4 12 44 13 150 3 57 -5 69
-3 74 10 5 12 10 14 19 6 7 -6 51 -8 116 -5 239 13 279 13 273 3 -4 -7 0 -7
13 0 10 6 36 8 58 5 22 -2 47 -4 55 -3 8 1 34 2 57 3 23 1 44 5 48 8 8 9 45
-1 45 -12 0 -5 10 -5 23 0 27 10 232 2 232 -9 0 -6 72 -4 81 2 7 5 31 8 55 8
24 -1 69 -1 99 -1 173 1 200 0 200 -8 0 -10 144 0 157 11 7 5 37 7 75 2 78 -8
79 -8 100 1 10 4 18 3 18 -1 0 -5 56 -8 125 -8 84 1 122 -2 118 -9 -4 -7 1 -8
13 -3 10 4 35 9 54 12 65 7 123 15 129 17 3 0 30 -5 60 -12 58 -15 231 -21
231 -8 0 4 27 7 59 7 33 0 72 5 86 10 15 6 32 7 38 3 5 -3 33 -7 61 -8 28 -1
53 -3 56 -5 16 -8 235 2 241 11 5 8 20 7 55 -3 27 -7 74 -12 104 -10 30 2 70
3 88 3 17 0 32 5 32 10 0 6 9 7 21 4 34 -11 68 -14 174 -14 55 -1 111 -1 125
-2 14 0 32 0 40 0 8 1 36 1 62 1 38 0 48 4 48 16 0 14 3 14 15 4 17 -14 182
-18 230 -5 37 10 84 10 109 0 10 -5 33 -3 50 2 17 6 75 10 129 8 56 -1 97 2
97 8 0 5 8 6 18 2 9 -4 36 -9 59 -11 23 -1 47 -5 52 -8 5 -4 13 -1 17 5 3 6
19 9 34 5 15 -3 43 -1 61 4 52 13 128 19 134 10 3 -5 19 -4 37 2 22 8 40 8 62
0 35 -12 165 -10 185 3 7 4 79 9 160 12 373 10 403 11 417 26 4 3 14 2 24 -3
10 -5 48 -9 86 -9 38 0 88 -1 112 -4 23 -2 42 -1 42 3 0 13 121 23 283 24 84
0 147 5 147 10 0 5 3 6 7 3 3 -4 12 -2 19 4 8 6 20 7 31 2 10 -5 32 -8 48 -7
190 10 259 15 267 20 5 3 15 0 23 -6 9 -7 23 -9 37 -4 13 4 50 9 83 11 33 1
65 3 70 3 6 1 25 -1 43 -4 18 -2 32 0 32 5 0 6 4 8 9 5 11 -7 134 -7 186 -1
22 3 76 8 120 11 44 4 86 11 93 16 8 7 16 7 25 1 6 -6 21 -9 32 -6 37 7 147 3
165 -7 13 -7 21 -7 25 0 4 6 11 8 16 5 5 -4 14 -3 21 1 16 10 58 12 64 2 3 -4
15 -4 27 0 12 4 45 6 72 5 28 -2 68 -3 90 -2 22 0 88 1 147 2 89 2 108 5 108
17 0 13 1 13 10 0 6 -10 10 -11 10 -2 0 6 9 12 20 12 11 0 20 -6 20 -12 0 -10
2 -10 8 -1 6 10 153 23 259 23 12 0 25 5 28 10 4 6 11 7 17 4 6 -4 50 -8 99
-10 48 -2 110 -6 136 -9 110 -13 206 -11 237 6 17 9 40 14 51 12 11 -2 84 -4
163 -5 79 -1 145 -5 148 -10 3 -5 10 -6 15 -2 27 16 142 25 151 11 6 -9 8 -9
8 1 0 6 7 12 16 12 8 0 13 -4 10 -9 -4 -5 3 -7 14 -4 11 3 20 9 20 14 0 10
201 6 218 -5 8 -4 11 -3 10 4 -4 17 29 21 61 8 36 -13 153 -13 179 1 21 11 27
8 23 -13 -1 -5 5 -4 13 4 11 8 34 11 67 8 30 -3 45 -2 37 3 -10 7 -10 9 2 9 9
0 22 -6 29 -12 10 -11 15 -9 27 6 8 12 14 14 14 7 0 -10 11 -11 43 -6 23 4 71
9 107 11 127 6 185 12 201 18 9 4 33 4 55 1 61 -9 70 -8 124 13 18 7 33 6 53
-4 15 -8 27 -12 27 -9 0 3 9 1 20 -5 15 -8 20 -8 20 2 0 9 3 9 10 -2 6 -10 10
-11 10 -2 0 7 12 12 28 12 16 0 32 3 36 8 4 4 80 7 169 8 89 1 207 2 262 3 55
2 113 -1 129 -5 21 -5 27 -4 22 4 -5 8 -2 10 8 6 9 -3 16 -2 16 3 0 5 16 7 35
5 19 -2 41 1 49 7 10 9 19 7 36 -7 22 -18 70 -19 70 -1 0 4 46 8 103 8 56 1
109 1 117 1 8 0 51 -2 95 -5 132 -9 218 -11 260 -5 22 3 50 2 62 -3 12 -5 30
-6 40 -2 10 4 58 9 106 10 66 1 90 -2 94 -11 4 -10 10 -11 23 -4 11 6 21 6 24
2 3 -5 25 -7 48 -6 85 7 218 5 235 -4 10 -5 34 -7 53 -5 85 10 552 18 747 13
70 -2 82 -4 86 -21 3 -10 1 -22 -5 -25 -6 -4 -8 -25 -4 -50 4 -36 2 -46 -14
-57 -11 -8 -17 -17 -13 -21 4 -3 8 -14 9 -24 1 -9 9 -48 18 -87 13 -54 25 -79
53 -108 35 -37 36 -41 34 -105 -3 -72 -3 -82 -1 -138 1 -23 -4 -42 -15 -53
-14 -12 -16 -13 -10 -1 9 17 -24 -9 -67 -52 -16 -15 -28 -26 -28 -23 0 3 -14
-8 -31 -25 -18 -16 -37 -30 -43 -30 -6 0 -22 -14 -35 -30 -13 -17 -27 -30 -33
-30 -5 0 -26 -18 -47 -40 -21 -22 -41 -37 -44 -33 -4 3 -7 1 -7 -5 0 -6 -9 -9
-20 -7 -15 3 -30 -11 -61 -53 -33 -46 -39 -63 -35 -87 8 -39 33 -72 71 -93 17
-9 33 -21 36 -26 4 -4 50 -9 103 -9 53 -1 96 -5 96 -9 0 -4 21 -7 48 -5 45 2
47 1 45 -23 -1 -14 -3 -53 -4 -87 -2 -34 -5 -60 -9 -58 -3 2 -5 -12 -4 -31 2
-19 -1 -34 -7 -34 -6 0 -8 -4 -5 -8 3 -5 -2 -21 -10 -36 -7 -16 -14 -46 -14
-67 0 -24 -6 -41 -16 -47 -9 -5 -15 -12 -15 -15 1 -4 1 -30 1 -57 0 -48 -1
-50 -25 -46 -13 3 -27 1 -29 -2 -2 -4 -50 -9 -105 -10 -98 -2 -200 15 -225 39
-6 5 -21 9 -34 9 -13 0 -32 5 -43 10 -16 9 -17 14 -6 31 15 24 -2 39 -45 39
-14 0 -28 5 -30 10 -6 18 -60 18 -78 1 -9 -9 -25 -21 -36 -27 -15 -9 -19 -22
-18 -66 0 -45 5 -61 27 -87 15 -18 27 -30 27 -26 0 3 9 1 20 -5 11 -6 18 -15
16 -19 -3 -4 19 -13 49 -20 30 -7 55 -16 55 -20 0 -13 47 -30 56 -21 5 5 26 3
47 -5 20 -7 37 -9 37 -4 0 5 12 3 28 -5 37 -19 80 -27 141 -28 28 0 54 -4 57
-9 3 -5 22 -9 43 -9 37 0 39 -2 51 -44 10 -36 10 -52 -1 -83 -24 -72 -7 -139
51 -200 15 -16 32 -23 58 -22 48 1 60 6 112 52 38 32 44 43 44 77 1 22 5 40
10 40 5 0 6 3 3 6 -3 4 -2 15 3 24 21 39 -17 116 -40 81 -5 -9 -9 -6 -13 8 -9
35 -8 36 21 37 15 1 44 9 65 18 20 9 37 13 37 10 0 -4 8 1 19 10 11 10 42 19
76 22 31 2 65 8 74 13 9 5 27 11 40 12 29 5 28 14 36 -246 5 -154 9 -193 22
-207 9 -10 12 -18 7 -19 -13 -1 37 -17 59 -18 9 -1 17 4 17 10 0 6 9 18 19 27
11 10 22 36 25 61 3 25 10 47 15 51 17 10 33 62 22 73 -7 7 -4 18 8 33 15 19
17 37 13 123 -2 56 0 107 5 114 5 7 11 30 12 52 2 22 7 48 12 58 6 9 8 21 5
26 -6 9 36 31 58 31 8 0 16 7 20 15 3 8 17 15 31 15 16 0 25 6 25 15 0 9 8 19
19 23 25 10 91 69 91 82 0 5 5 10 10 10 6 0 10 7 10 15 0 8 5 15 12 15 6 0 9
3 5 6 -3 3 5 16 17 28 14 13 25 38 29 66 3 24 11 46 16 48 6 2 11 28 11 57 0
44 -5 59 -25 79 -13 13 -27 36 -31 49 -3 16 -11 24 -19 20 -8 -2 -28 9 -44 26
-17 18 -31 28 -31 24 0 -4 -4 -3 -8 2 -12 17 -69 45 -92 45 -13 0 -24 8 -27
19 -2 10 -19 23 -36 28 -18 5 -31 15 -30 21 2 7 -2 12 -8 12 -5 0 -7 4 -4 10
3 5 0 7 -8 4 -9 -3 -13 2 -12 18 1 13 -4 31 -12 40 -8 9 -12 21 -9 26 3 5 1
58 -5 118 -5 60 -9 147 -8 194 4 207 4 206 -38 213 -41 6 -71 54 -45 71 14 9
7 107 -8 116 -8 5 -15 21 -18 37 -2 15 -8 31 -14 34 -7 4 -5 9 3 12 10 4 10 6
-2 6 -9 1 -22 8 -29 16 -7 8 -21 15 -31 15 -21 0 -90 -45 -102 -66 -21 -37
-33 -101 -25 -129 14 -48 20 -87 22 -135 0 -25 6 -48 11 -52 6 -5 5 -12 -5
-17 -9 -6 -19 -6 -26 0 -9 7 -13 4 -16 -12 -2 -14 -15 -27 -35 -36 -31 -12
-32 -12 -31 15 0 15 -7 47 -16 71 -9 24 -16 53 -16 66 0 12 -3 24 -6 28 -12
12 -2 206 12 228 2 4 0 10 -6 14 -5 3 -10 15 -10 25 0 14 -6 18 -27 15 -15 -1
-39 2 -53 7 -16 6 -26 6 -28 -1 -2 -7 -10 -5 -19 4 -8 9 -12 22 -9 30 3 9 0
12 -10 8 -23 -8 -17 25 7 38 12 6 53 10 93 9 39 0 133 -1 209 -1 75 -1 137 -4
137 -8 0 -13 29 -8 34 5 6 15 100 17 127 3 12 -6 21 -4 30 7 8 10 21 13 38 8
34 -9 179 -8 214 1 20 5 27 3 27 -6 0 -12 2 -12 9 -1 8 14 88 24 106 14 25
-15 130 -8 120 7 -2 5 15 5 38 0 23 -4 101 -7 173 -7 72 1 137 -3 144 -7 8 -5
11 -4 7 2 -9 14 106 3 115 -11 4 -6 8 -7 8 -3 0 5 10 1 22 -7 31 -22 46 -93
47 -214 0 -57 3 -107 6 -113 4 -5 3 -15 -2 -21 -4 -7 -8 -85 -9 -173 0 -88 -4
-182 -8 -210 -5 -27 -8 -67 -8 -87 -1 -23 -5 -35 -11 -31 -6 3 -7 1 -3 -6 20
-32 26 -268 8 -303 -12 -22 -32 -245 -23 -254 2 -2 5 -16 7 -31 1 -16 6 -42 9
-59 4 -20 1 -42 -8 -60 -19 -38 -26 -100 -33 -319 -3 -99 -8 -202 -10 -230 -2
-27 -6 -77 -8 -110 -2 -33 -7 -71 -11 -85 -3 -14 -8 -79 -11 -144 -2 -65 -8
-124 -13 -130 -5 -6 -13 -47 -16 -91 -4 -44 -10 -86 -15 -95 -4 -8 -6 -64 -3
-125 7 -160 6 -211 -6 -234 -7 -13 -8 -22 -1 -26 6 -4 1 -23 -13 -48 -16 -28
-21 -49 -17 -62 4 -11 2 -35 -6 -54 -8 -18 -14 -41 -14 -51 0 -10 -7 -31 -15
-46 -8 -16 -15 -41 -15 -56 0 -15 -4 -30 -10 -33 -5 -3 -10 -19 -10 -35 0 -16
-4 -31 -9 -34 -8 -5 -15 -53 -23 -156 -2 -19 -6 -38 -11 -41 -8 -6 -14 -47
-22 -130 -2 -26 -6 -62 -9 -80 -3 -19 -8 -59 -10 -89 -3 -30 -12 -82 -21 -115
-9 -33 -18 -94 -21 -135 -2 -41 -6 -93 -9 -115 -3 -22 -7 -67 -10 -100 -3 -33
-7 -67 -9 -75 -1 -8 -6 -31 -10 -50 -4 -20 -9 -134 -11 -255 -4 -227 -11 -312
-26 -331 -18 -23 -42 -181 -43 -289 -1 -27 -6 -54 -13 -60 -17 -14 -22 -270
-5 -287 9 -9 7 -14 -5 -24 -14 -9 -18 -31 -20 -105 -3 -125 -11 -228 -20 -259
-5 -14 -8 -143 -8 -288 0 -144 -2 -262 -5 -262 -3 0 -5 -62 -4 -138 0 -98 5
-152 17 -192 9 -30 18 -76 19 -102 0 -26 4 -46 7 -44 3 2 7 -68 9 -157 2 -88
7 -168 12 -177 19 -36 36 -337 20 -354 -5 -4 -2 -48 16 -276 8 -99 8 -101 -2
-246 -4 -69 -3 -141 4 -190 7 -43 12 -122 13 -174 1 -52 5 -97 10 -100 13 -9
10 -295 -3 -316 -9 -14 -5 -325 5 -340 4 -7 9 -127 11 -268 4 -235 2 -259 -15
-292 -10 -20 -16 -40 -14 -45 3 -4 2 -10 -2 -12 -10 -6 -9 -183 2 -298 5 -56
4 -103 -4 -135 -6 -27 -13 -84 -16 -127 -3 -43 -8 -84 -12 -90 -4 -7 -9 -100
-11 -207 -1 -107 -3 -229 -4 -270 -2 -83 10 -213 22 -246 5 -12 7 -24 4 -27
-3 -3 4 -20 15 -38 12 -19 21 -44 21 -57 0 -13 5 -33 11 -44 6 -12 11 -69 10
-137 -1 -112 16 -238 37 -264 5 -7 8 -21 6 -32 -1 -10 2 -25 8 -33 6 -7 12
-38 14 -70 2 -63 21 -189 30 -203 3 -5 7 -31 9 -58 4 -57 38 -131 60 -131 8 0
15 -4 15 -8 0 -4 12 -7 28 -6 15 1 39 2 55 3 17 1 27 7 27 16 0 8 5 15 11 15
7 0 9 18 5 53 -13 134 -26 228 -30 235 -2 4 -7 37 -10 72 -4 36 -9 81 -12 100
-3 19 -7 50 -9 69 -3 19 -8 37 -13 40 -5 3 -14 26 -20 51 -10 41 -15 92 -27
275 -2 33 -13 92 -25 130 -12 39 -23 81 -26 94 -3 13 -9 33 -15 43 -6 10 -7
29 -3 41 4 12 6 45 5 72 -1 28 2 70 7 95 4 25 5 60 1 78 -4 22 -2 35 7 40 16
9 20 106 6 174 -15 73 -2 215 29 314 5 17 9 83 8 145 -1 148 -1 136 6 264 3
61 7 171 9 245 2 74 4 135 5 135 20 0 12 455 -8 463 -4 1 -4 30 1 64 4 33 6
100 3 147 -3 47 -7 147 -10 221 -6 207 -15 371 -22 410 -10 50 -6 224 6 295 6
33 8 112 5 175 -5 96 -9 196 -16 415 -1 33 -26 245 -34 285 -3 14 -6 62 -7
107 -2 45 -6 85 -10 89 -4 4 -7 45 -7 90 0 45 -5 95 -11 111 -7 16 -11 81 -11
153 3 411 7 606 14 611 5 3 10 77 12 165 3 104 10 173 19 199 8 22 13 59 10
83 -2 25 0 42 7 42 5 0 10 20 10 46 0 32 3 43 12 38 7 -5 8 -3 3 6 -12 20 -5
171 9 202 4 9 3 25 -3 36 -6 11 -8 22 -5 24 3 3 7 18 10 34 3 16 7 37 10 48 5
16 15 168 16 253 0 18 4 30 9 27 5 -3 6 2 3 11 -4 8 -2 21 4 28 5 6 10 69 10
138 0 70 3 133 8 140 5 8 10 34 12 59 6 91 9 115 16 137 4 12 3 24 -3 27 -11
7 -3 46 10 46 4 0 8 12 8 28 1 78 8 199 14 217 3 11 8 31 11 45 3 14 10 43 16
65 6 22 13 63 15 90 5 76 14 131 25 160 6 15 10 43 10 64 0 21 3 41 7 45 4 4
9 29 10 54 6 122 11 155 36 214 9 20 13 39 10 42 -3 3 0 13 8 22 7 9 14 35 15
58 1 23 6 51 11 62 5 10 11 39 12 64 2 44 18 105 33 125 4 6 3 27 -1 47 -5 21
-6 40 -3 43 3 3 7 49 9 103 1 53 5 138 8 187 3 50 6 98 6 108 0 10 6 20 12 23
12 4 20 96 19 199 -1 28 -1 59 0 70 1 11 2 46 2 77 0 31 4 56 9 55 11 -2 13
115 3 211 -4 35 -2 71 3 81 6 10 13 73 16 141 5 131 11 165 30 193 13 18 10
107 -3 117 -10 8 -13 30 -4 30 7 0 11 22 17 95 1 17 3 32 4 35 4 10 11 106 12
168 0 34 5 62 10 62 10 0 7 149 -4 166 -11 20 -12 135 0 143 5 3 8 56 8 116 0
113 2 138 14 131 3 -2 6 18 6 45 1 27 -2 49 -6 49 -6 0 -5 97 1 110 1 3 2 9 0
15 -4 24 -12 156 -12 208 0 31 -4 57 -8 57 -5 0 -8 36 -7 81 2 75 0 83 -25
112 -16 17 -28 27 -28 22 0 -4 -8 -1 -17 7 -10 8 -25 15 -33 16 -45 0 -103 21
-64 23 18 0 18 1 -1 8 -12 5 -23 4 -27 -3 -6 -8 -8 -8 -8 1 0 7 -16 15 -36 19
-20 4 -31 10 -25 13 6 4 -7 7 -29 6 -22 0 -40 -2 -40 -5z m-17545 -460 c3 -5
1 -10 -4 -10 -6 0 -11 5 -11 10 0 6 2 10 4 10 3 0 8 -4 11 -10z m78 -35 c-2
-5 -14 -10 -27 -11 -17 0 -23 3 -19 13 6 15 49 14 46 -2z m16254 -542 c6 -85
7 -119 3 -203 l-3 -55 -80 -3 c-44 -1 -88 -7 -98 -13 -15 -8 -19 -6 -20 8 -1
10 -1 22 0 27 1 4 4 39 7 75 10 142 11 146 29 143 11 -2 15 3 13 15 -2 12 3
18 14 17 10 -1 15 2 13 7 -3 4 5 13 17 20 12 7 29 18 36 26 8 7 23 11 33 8 12
-4 19 -2 19 6 0 7 3 10 6 6 3 -3 8 -41 11 -84z m-411 -202 c-5 -55 -8 -57 -63
-55 -57 2 -64 21 -16 44 18 8 33 20 33 27 0 10 14 17 42 22 4 0 6 -17 4 -38z
m306 -265 c124 13 143 1 147 -91 1 -33 4 -74 7 -91 3 -17 1 -41 -4 -54 -5 -14
-5 -42 1 -69 7 -32 6 -46 -2 -49 -6 -2 -11 -9 -11 -15 0 -7 -9 -18 -21 -25
-12 -8 -18 -9 -14 -3 9 16 -6 12 -40 -10 -16 -10 -42 -24 -58 -30 -15 -6 -32
-19 -37 -29 -5 -10 -24 -21 -41 -25 -17 -4 -42 -13 -57 -21 -44 -23 -72 -18
-72 11 0 14 6 25 13 25 7 0 8 3 2 8 -12 9 -13 42 -2 60 5 7 6 20 3 28 -3 8 -1
12 4 9 5 -3 10 4 9 17 -1 43 9 143 16 161 4 9 5 23 2 31 -3 7 1 23 8 34 8 10
11 22 8 26 -3 3 6 31 21 61 24 46 31 53 46 45 10 -5 42 -7 72 -4z m446 -85
c22 -9 31 -18 28 -28 -4 -11 -1 -13 14 -8 26 8 25 5 -10 -40 -16 -21 -30 -34
-30 -30 0 5 -10 -4 -23 -18 -12 -15 -29 -27 -37 -27 -9 0 -8 5 6 15 12 9 14
14 5 15 -10 0 -12 11 -6 46 4 32 3 44 -4 39 -6 -3 -11 1 -11 9 0 9 6 16 13 17
8 0 8 2 -2 6 -11 5 -11 7 0 14 8 5 16 7 19 6 3 -2 20 -9 38 -16z m-15449
-8377 c-14 -13 -17 -13 -30 2 -8 10 -9 15 -3 11 7 -4 15 1 18 10 5 12 9 14 18
5 9 -9 9 -16 -3 -28z m-42 -498 c18 -11 34 -31 38 -43 3 -12 18 -34 33 -50 32
-33 57 -101 49 -135 -3 -12 -2 -50 2 -83 11 -80 -1 -108 -43 -100 -17 4 -43
11 -58 17 -15 5 -33 8 -40 5 -7 -2 -26 5 -42 16 -25 17 -54 24 -131 29 -5 0
-17 -3 -26 -6 -9 -4 -23 -1 -30 6 -18 17 -57 22 -72 10 -7 -5 -35 -10 -63 -11
-39 -1 -53 3 -58 14 -3 9 -2 13 4 10 6 -3 10 -1 10 4 0 6 -4 11 -10 11 -5 0
-10 8 -10 18 0 10 -5 23 -11 29 -6 6 -8 29 -4 59 6 42 12 53 46 77 21 16 43
26 48 22 5 -3 12 -1 16 5 3 5 13 10 22 10 8 0 31 14 50 30 18 17 40 30 48 30
8 0 24 9 35 20 11 11 31 20 44 20 14 0 28 5 31 10 9 15 86 1 122 -24z m-671
-282 c4 -24 3 -39 -6 -44 -10 -6 -9 -9 1 -13 8 -3 4 -6 -8 -6 -13 -1 -23 5
-23 12 0 9 -2 9 -9 -1 -7 -12 -14 -11 -39 2 -39 20 -48 35 -25 42 10 3 34 14
53 25 47 25 48 25 56 -17z m-116 -48 c0 -3 -4 -8 -10 -11 -5 -3 -10 -1 -10 4
0 6 5 11 10 11 6 0 10 -2 10 -4z m508 -228 c40 1 90 -5 110 -12 20 -8 57 -17
81 -20 23 -4 57 -17 75 -29 17 -13 44 -30 60 -38 16 -7 40 -31 54 -52 21 -31
24 -44 18 -84 -3 -25 -11 -52 -17 -59 -6 -7 -8 -18 -4 -24 4 -6 0 -22 -9 -35
-9 -13 -16 -31 -16 -40 0 -8 -7 -15 -15 -15 -8 0 -15 -4 -15 -8 0 -5 -11 -14
-25 -20 -14 -6 -25 -18 -25 -27 0 -8 -6 -15 -12 -15 -18 0 -128 -103 -128
-118 0 -7 -4 -11 -9 -7 -5 3 -12 -3 -15 -13 -4 -10 -17 -19 -33 -20 -14 -1
-34 -9 -42 -16 -16 -15 -93 -37 -143 -41 -15 -1 -34 -7 -42 -14 -13 -11 -16
-8 -23 16 -8 33 -9 170 0 198 3 11 9 115 12 230 9 291 7 279 58 269 18 -4 65
-6 105 -6z"/>
<path d="M3159 12993 c-13 -15 -12 -15 9 -4 23 12 28 21 13 21 -5 0 -15 -7
-22 -17z"/>
<path d="M2426 12622 c-4 -6 -15 -9 -25 -7 -11 2 -27 -8 -40 -26 -18 -24 -20
-35 -13 -66 5 -23 5 -50 -1 -67 -7 -20 -6 -40 1 -60 6 -17 12 -49 14 -71 1
-22 8 -51 15 -65 7 -14 9 -26 5 -28 -8 -2 -7 -115 1 -129 2 -4 7 -20 10 -34 8
-30 -19 -69 -47 -69 -9 0 -16 -4 -16 -8 0 -5 -24 -13 -52 -18 -29 -5 -53 -14
-53 -21 0 -7 -6 -18 -12 -24 -10 -10 -13 -10 -13 1 0 9 -6 6 -16 -8 -9 -13
-22 -21 -30 -18 -8 3 -14 -1 -14 -11 0 -13 -3 -13 -16 -2 -8 7 -15 26 -14 43
1 17 1 33 0 36 -1 3 -4 32 -7 65 -2 33 -8 64 -13 70 -4 5 -10 37 -14 70 -3 34
-2 52 2 41 8 -18 9 -18 15 -3 8 22 -2 108 -15 124 -5 6 -8 20 -7 30 3 25 -18
73 -39 90 -72 58 -89 62 -204 54 -23 -1 -51 -32 -76 -84 -22 -45 -34 -97 -22
-97 9 0 23 -39 21 -56 -1 -7 5 -14 14 -18 8 -3 15 -14 15 -24 0 -10 10 -32 23
-49 17 -23 29 -30 50 -27 18 2 27 -2 27 -12 0 -8 -5 -14 -11 -14 -6 0 -3 -7 5
-16 18 -17 20 -30 8 -38 -12 -7 -14 -74 -2 -81 13 -8 13 -68 -1 -82 -8 -8 -8
-17 1 -32 6 -12 8 -26 5 -31 -12 -20 -13 -50 -2 -50 7 0 4 -6 -5 -14 -10 -7
-15 -16 -11 -19 9 -9 -17 -38 -29 -31 -5 3 -21 -2 -35 -12 -18 -11 -28 -13
-31 -6 -4 12 -66 -13 -90 -35 -7 -7 -21 -13 -30 -13 -21 0 -122 -51 -122 -61
0 -4 -13 -10 -30 -14 -16 -4 -32 -11 -35 -16 -4 -5 -17 -9 -30 -9 -18 0 -23
-4 -19 -15 4 -9 0 -15 -10 -15 -9 0 -16 -4 -16 -9 0 -5 -12 -11 -28 -14 -38
-8 -76 -40 -99 -84 -29 -56 -35 -89 -20 -105 8 -7 12 -18 10 -25 -2 -6 5 -14
17 -18 11 -3 18 -11 15 -16 -3 -5 1 -6 9 -3 8 3 25 -2 39 -11 18 -11 31 -13
49 -6 13 5 60 9 103 9 44 0 87 2 95 6 16 6 83 23 144 36 21 4 41 12 45 16 9
13 54 16 46 4 -3 -6 -1 -10 5 -10 16 0 -5 -241 -22 -251 -6 -4 -8 -22 -6 -40
5 -34 -14 -112 -33 -135 -6 -7 -9 -21 -7 -31 1 -10 -1 -24 -5 -30 -5 -7 -6
-13 -3 -13 2 0 1 -14 -4 -30 -5 -17 -5 -53 0 -83 7 -44 6 -54 -8 -64 -9 -7
-23 -17 -29 -23 -7 -6 -30 -8 -50 -6 -21 3 -81 8 -133 11 -196 10 -243 16
-286 36 -24 12 -48 18 -54 14 -5 -3 -10 -1 -10 5 0 6 -4 9 -9 5 -5 -3 -12 -1
-16 5 -3 5 -15 10 -26 10 -22 0 -22 0 -9 35 5 14 14 24 19 21 9 -6 61 48 61
64 0 5 4 10 9 10 14 0 29 59 27 104 -1 32 -6 43 -31 57 -38 22 -59 23 -75 4
-7 -9 -19 -14 -27 -11 -7 3 -13 1 -13 -4 0 -5 -26 -21 -57 -37 -56 -28 -58
-30 -56 -67 1 -31 -4 -45 -25 -65 -36 -34 -55 -77 -43 -99 5 -9 11 -35 14 -57
2 -22 10 -52 16 -68 13 -34 51 -76 51 -58 0 10 6 9 23 -3 12 -9 33 -21 47 -27
25 -11 32 -13 100 -23 19 -3 55 -10 80 -15 25 -6 68 -13 95 -15 28 -3 70 -10
95 -16 47 -11 127 -13 143 -3 5 3 37 6 72 8 75 3 79 -2 76 -86 -4 -96 39 -150
133 -166 31 -6 56 -6 56 -1 0 4 5 8 10 8 16 0 80 44 80 55 0 6 14 25 30 44 17
18 30 38 30 43 0 6 14 39 31 74 27 57 33 64 56 61 14 -2 42 5 62 15 19 10 49
18 66 18 17 0 35 4 40 9 14 13 103 17 114 6 5 -6 11 -23 12 -40 2 -16 6 -34
10 -40 3 -5 10 -39 13 -75 4 -36 11 -70 16 -75 5 -6 10 -28 12 -49 1 -21 8
-40 15 -43 7 -3 13 -21 13 -40 0 -19 4 -32 9 -28 11 6 19 -37 19 -107 1 -99
82 -169 136 -116 9 10 16 20 16 23 -1 3 1 22 4 43 13 78 9 306 -8 394 -2 13
-7 41 -11 63 -4 22 -12 45 -16 51 -5 6 -7 31 -4 54 3 26 1 46 -5 50 -6 4 -8
14 -4 24 5 12 10 14 19 6 10 -8 18 -4 34 16 12 15 21 21 21 13 0 -8 3 -10 8
-4 4 6 13 10 20 11 28 2 32 5 32 18 0 8 11 17 24 20 13 3 41 21 62 41 22 19
42 35 47 35 4 0 7 6 7 13 0 6 17 28 36 47 35 34 73 84 104 139 16 30 21 178 6
199 -7 9 -5 17 5 23 10 6 10 9 2 9 -7 0 -13 5 -13 12 0 13 -60 110 -75 120 -5
4 -37 34 -70 66 -59 57 -80 71 -120 79 -11 2 -25 10 -31 18 -6 8 -18 15 -27
15 -9 0 -19 5 -22 11 -4 6 -13 8 -21 5 -8 -3 -17 0 -19 7 -3 6 -17 13 -31 14
-29 1 -47 20 -39 41 2 6 1 12 -3 12 -13 0 -14 78 -2 100 10 19 13 74 7 152 -2
33 0 37 28 44 16 4 45 9 63 10 55 5 133 90 101 110 -5 3 -9 14 -9 25 0 11 -7
19 -16 19 -8 0 -13 3 -10 8 6 9 -16 38 -29 37 -5 0 -22 -8 -36 -18 -23 -15
-61 -19 -73 -6 -5 5 -17 54 -20 85 -1 11 -6 26 -11 34 -5 8 -10 37 -12 65 -1
27 -5 66 -8 85 -2 19 -7 51 -10 70 -3 19 -12 45 -20 57 -8 12 -15 32 -15 44 0
11 -9 33 -20 49 -11 15 -17 30 -13 33 3 4 -7 12 -23 19 -16 7 -32 17 -35 21
-4 5 -9 4 -13 -1z m-46 -858 c11 -31 9 -64 -5 -169 -2 -11 -4 -23 -4 -26 -2
-16 -138 -34 -155 -21 -6 5 -33 10 -61 11 -27 2 -53 5 -57 7 -5 3 -8 25 -8 48
0 36 4 45 21 49 11 3 23 15 26 26 4 15 13 21 34 21 32 0 127 46 145 70 22 29
52 22 64 -16z m-156 -400 c109 2 125 -5 120 -51 -1 -15 2 -33 7 -39 5 -7 11
-26 12 -43 1 -17 5 -31 9 -31 10 0 20 -97 20 -187 1 -43 5 -83 10 -90 6 -7 5
-19 -2 -32 -8 -16 -8 -21 1 -21 8 0 8 -4 -1 -15 -10 -12 -10 -25 -1 -60 13
-52 2 -85 -29 -85 -10 0 -22 -4 -25 -10 -3 -5 -19 -10 -34 -10 -16 0 -44 -6
-62 -14 -37 -14 -99 -5 -99 16 0 7 -4 7 -13 -1 -8 -6 -17 -8 -20 -4 -4 3 -7
-1 -7 -10 0 -16 -11 -20 -55 -19 -11 0 -22 -4 -25 -8 -3 -5 -17 -11 -32 -14
-40 -7 -40 5 -2 229 3 17 6 56 8 88 1 32 7 61 13 65 11 7 26 98 28 172 3 122
24 184 56 164 5 -3 9 3 9 13 0 12 3 14 8 6 5 -8 40 -11 106 -9z m396 -36 c0
-6 3 -8 7 -5 3 4 20 -2 37 -12 17 -10 44 -21 59 -25 15 -4 25 -11 22 -17 -4
-5 5 -22 19 -36 14 -14 26 -31 26 -37 0 -6 13 -20 30 -31 30 -20 48 -65 34
-86 -4 -8 -3 -9 4 -5 7 4 12 2 12 -4 0 -10 -28 -44 -98 -119 -19 -20 -38 -46
-42 -58 -8 -18 -16 -22 -49 -20 l-41 1 4 51 c3 27 5 52 6 55 6 17 -3 116 -10
118 -5 2 -6 10 -3 18 3 8 0 20 -6 28 -6 7 -8 16 -5 19 3 3 2 12 -2 19 -9 15
-12 24 -20 88 -7 54 -7 53 -5 63 2 12 21 8 21 -5z"/>
<path d="M8846 12011 c-4 -5 -19 -12 -35 -16 -16 -3 -37 -15 -46 -25 -10 -11
-21 -18 -25 -15 -4 2 -16 -6 -28 -18 -11 -12 -37 -38 -56 -57 -20 -19 -36 -38
-36 -43 0 -4 -5 -5 -11 -2 -5 4 -18 -3 -28 -14 -10 -12 -23 -21 -29 -21 -6 0
-21 -20 -33 -45 -18 -35 -31 -48 -66 -61 -24 -9 -43 -23 -43 -30 0 -8 -7 -14
-15 -14 -22 0 -62 -28 -113 -77 -24 -24 -51 -43 -60 -43 -18 0 -142 -131 -142
-149 0 -6 -4 -11 -10 -11 -13 0 -60 -52 -60 -67 0 -7 -4 -13 -10 -13 -5 0 -10
-7 -10 -15 0 -14 -12 -20 -33 -16 -10 2 -55 -49 -62 -72 -4 -9 -11 -15 -16
-12 -5 4 -9 -1 -9 -9 0 -8 -9 -17 -19 -21 -10 -3 -22 -16 -25 -28 -4 -12 -24
-35 -46 -52 -22 -16 -42 -40 -46 -52 -3 -13 -12 -23 -20 -23 -15 0 -74 -57
-74 -72 0 -5 -5 -6 -12 -2 -7 5 -9 0 -6 -14 4 -15 0 -23 -13 -27 -23 -8 -69
-72 -69 -97 0 -10 -7 -18 -15 -18 -20 0 -53 -78 -50 -117 2 -18 -1 -33 -6 -33
-5 0 -9 -11 -9 -24 0 -13 -7 -29 -15 -36 -9 -7 -13 -20 -10 -29 3 -11 -6 -28
-25 -46 -19 -19 -30 -39 -30 -57 0 -15 -4 -28 -8 -28 -13 0 -33 -65 -39 -125
-3 -30 -10 -55 -14 -55 -5 0 -9 -6 -9 -12 0 -7 -12 -24 -25 -37 -14 -13 -25
-31 -25 -41 0 -10 -7 -31 -15 -46 -8 -16 -15 -40 -15 -53 0 -13 -11 -39 -25
-57 -14 -18 -25 -40 -25 -49 0 -17 -43 -100 -66 -125 -7 -9 -19 -40 -25 -70
-7 -30 -20 -64 -29 -75 -10 -11 -21 -38 -25 -60 -4 -22 -10 -44 -15 -50 -4 -5
-11 -39 -14 -75 -4 -36 -12 -70 -17 -76 -5 -7 -12 -23 -14 -35 -3 -13 -9 -44
-15 -69 -5 -25 -14 -66 -20 -92 -5 -26 -7 -54 -4 -62 4 -10 1 -16 -9 -16 -11
0 -18 -13 -23 -37 -4 -21 -10 -42 -13 -48 -4 -5 -8 -23 -10 -40 -1 -16 -9 -49
-17 -73 -8 -23 -14 -56 -14 -72 0 -16 -4 -31 -9 -35 -5 -3 -13 -31 -17 -62 -4
-32 -16 -73 -26 -92 -20 -35 -29 -70 -32 -126 -1 -16 -5 -37 -9 -45 -3 -8 -13
-58 -21 -110 -9 -52 -22 -124 -30 -160 -7 -36 -17 -98 -21 -138 -4 -39 -11
-74 -15 -77 -5 -3 -16 -31 -25 -63 -48 -163 -53 -196 -59 -412 -8 -280 -15
-362 -32 -375 -9 -6 -18 -43 -24 -93 -5 -45 -12 -88 -17 -94 -20 -34 -36 -393
-20 -468 4 -19 10 -129 12 -245 4 -164 10 -227 25 -288 22 -85 29 -299 14
-432 -9 -85 -9 -78 0 -345 4 -118 12 -233 17 -254 12 -45 21 -212 23 -431 1
-155 18 -305 42 -387 13 -43 50 -113 95 -179 10 -15 21 -39 25 -54 4 -15 28
-55 54 -89 25 -33 53 -74 61 -91 9 -16 23 -45 32 -63 9 -19 17 -45 17 -59 0
-13 22 -68 48 -121 27 -53 50 -101 51 -107 11 -34 24 -56 65 -109 25 -33 46
-65 46 -71 0 -14 68 -85 108 -114 16 -11 44 -43 62 -71 18 -27 37 -50 44 -50
6 0 28 -16 48 -36 21 -19 58 -42 82 -50 24 -8 53 -24 65 -35 19 -18 113 -43
143 -38 47 8 156 -28 248 -83 62 -37 125 -71 127 -70 5 3 39 -12 53 -23 31
-25 100 -44 181 -50 46 -3 89 -11 96 -17 10 -8 20 -8 37 1 15 9 47 11 97 7
193 -15 276 -24 304 -32 46 -15 524 -2 534 14 7 12 119 30 220 36 41 3 77 9
80 14 7 10 123 8 139 -1 5 -4 23 0 40 8 17 9 43 13 59 10 40 -7 111 5 128 22
8 8 25 13 38 12 30 -4 66 9 102 36 30 23 73 41 88 37 4 -1 7 2 7 7 0 4 23 9
52 10 28 0 58 7 67 14 9 8 38 15 66 16 27 1 54 6 60 10 5 4 19 8 31 9 12 0 41
9 65 20 24 11 60 25 79 32 19 6 46 18 60 25 14 7 28 14 33 14 4 1 8 1 10 2 1
0 13 3 27 5 13 2 27 8 30 12 3 4 12 8 20 10 8 2 25 13 37 24 16 15 29 18 51
13 17 -3 33 -2 36 3 3 5 22 13 43 17 20 4 46 13 56 20 11 7 26 11 33 8 8 -3
14 0 14 6 0 6 16 11 35 11 19 0 35 5 35 10 0 6 5 10 12 10 20 0 102 43 119 62
9 10 23 18 32 18 9 0 23 7 31 16 9 8 25 17 37 19 12 2 27 12 35 22 10 13 13
14 14 4 0 -11 4 -11 19 3 11 10 25 14 36 10 11 -5 21 -1 27 9 5 10 14 17 21
17 7 0 34 11 61 25 27 14 58 25 68 25 10 0 30 7 43 16 14 9 25 13 25 8 0 -4
11 3 25 16 16 15 36 23 53 22 17 -1 37 6 50 18 11 11 29 20 38 20 22 0 76 39
69 50 -3 5 12 18 35 30 22 11 40 24 40 29 0 5 15 13 33 16 45 10 88 34 109 61
10 12 27 26 38 29 11 4 20 13 20 20 0 8 12 21 28 29 15 8 34 24 42 35 8 12 22
21 32 21 16 0 22 11 19 32 0 4 6 5 14 2 8 -4 15 -1 15 5 0 6 7 11 15 11 8 0
24 9 35 20 11 11 26 20 34 20 8 0 17 9 21 19 3 11 20 24 37 30 17 6 39 20 49
32 10 11 22 18 27 15 6 -3 12 1 16 9 3 8 17 20 31 27 14 6 25 15 25 19 0 4 16
24 35 44 19 21 33 42 32 49 -1 6 4 10 11 8 8 -1 11 2 7 8 -3 5 1 13 9 16 9 3
16 12 16 20 0 8 13 22 30 33 16 10 27 20 24 24 -3 3 7 14 23 24 15 9 34 26 42
36 7 10 24 22 37 27 13 5 24 16 24 25 0 8 3 14 8 13 12 -5 82 53 82 68 0 8 7
14 14 14 8 0 27 11 42 25 15 14 32 25 38 26 11 0 32 25 142 168 56 74 84 129
84 168 0 17 40 83 51 83 5 0 9 5 9 11 0 9 44 73 60 89 6 5 31 116 32 140 1 8
9 26 18 40 10 14 16 33 15 43 -2 9 1 17 6 17 6 0 7 5 4 10 -3 6 -1 10 5 10 6
0 8 5 5 10 -3 6 -1 10 4 10 6 0 11 5 11 12 0 6 7 20 17 30 18 20 20 33 27 153
6 96 29 209 46 230 7 9 10 18 7 21 -3 4 4 27 17 53 29 58 47 129 51 206 2 33
6 67 10 76 7 18 8 44 7 169 0 47 -1 105 -1 130 0 25 5 72 11 105 17 101 19
223 3 269 -8 24 -18 63 -21 87 -10 72 -12 272 -3 304 11 37 16 282 6 291 -4 4
-7 21 -7 39 0 17 -5 36 -12 43 -7 7 -13 44 -14 85 -1 39 -7 108 -13 152 -6 47
-7 95 -2 115 4 20 6 46 5 58 -2 12 1 22 7 22 7 0 8 14 4 41 -7 42 9 99 28 99
23 0 -3 80 -52 154 -34 52 -51 89 -51 110 0 47 -20 118 -51 178 -5 10 -9 26
-9 35 0 10 -10 34 -21 53 -16 25 -23 56 -25 110 -6 109 -11 163 -19 183 -4 9
-3 23 3 30 11 13 -15 179 -30 185 -4 2 -8 12 -8 23 0 10 -9 34 -19 52 -69 123
-101 209 -101 271 0 20 -9 56 -20 78 -11 23 -20 48 -20 55 0 21 -21 54 -77
117 -29 33 -53 65 -53 73 0 7 -4 13 -8 13 -17 0 -102 90 -103 110 -3 40 -23
84 -58 129 -16 20 -31 47 -32 61 -2 14 -8 28 -12 31 -5 3 -10 12 -11 20 -2 8
-8 27 -14 42 -7 16 -12 32 -12 37 0 4 -7 21 -15 36 -8 16 -15 38 -15 49 0 11
-11 41 -25 67 -14 26 -25 57 -25 69 0 13 -9 32 -19 43 -11 12 -21 32 -23 46
-1 14 -10 32 -19 40 -8 8 -23 32 -33 53 -10 21 -24 41 -32 44 -8 3 -14 11 -14
18 0 8 -9 17 -20 20 -11 3 -20 13 -20 21 0 8 -5 14 -11 14 -5 0 -8 4 -5 8 5 8
-28 42 -40 42 -15 0 -144 135 -144 151 0 9 -7 19 -15 23 -8 3 -15 10 -15 16 0
16 -65 91 -187 215 -35 35 -63 71 -63 79 0 9 -4 16 -10 16 -5 0 -7 7 -4 15 4
10 2 13 -8 10 -8 -3 -19 4 -27 18 -7 13 -22 30 -34 38 -12 8 -33 25 -48 39
-15 14 -31 26 -36 27 -5 1 -42 21 -82 45 -40 24 -81 48 -92 54 -11 6 -30 20
-43 30 -23 20 -37 25 -71 29 -11 1 -22 10 -23 19 -3 12 -10 16 -23 13 -11 -3
-44 7 -76 24 -30 16 -61 29 -69 29 -8 0 -14 7 -14 15 0 8 -6 12 -15 9 -8 -3
-20 -2 -27 2 -7 5 -20 9 -28 10 -21 1 -53 16 -68 31 -7 7 -27 13 -43 13 -16 0
-29 4 -29 9 0 8 -41 28 -80 38 -21 5 -209 25 -247 26 -18 1 -33 6 -33 11 0 6
-5 5 -12 -2 -16 -16 -53 -15 -71 3 -20 19 -83 43 -127 48 -19 2 -48 9 -65 16
-51 21 -228 36 -250 20 -5 -4 -39 -3 -74 2 -49 7 -67 6 -73 -3 -5 -9 -8 -8 -8
5 0 14 -7 18 -27 16 -44 -3 -65 0 -58 10 5 9 -32 27 -48 23 -4 -1 -36 5 -70
14 -34 9 -77 13 -94 11 -19 -3 -33 -1 -33 4 0 6 -5 7 -10 4 -6 -4 -27 -1 -48
6 -20 7 -49 12 -64 10 -16 -1 -28 1 -28 6 0 10 -21 12 -138 14 -71 1 -89 -3
-132 -25 -55 -29 -63 -30 -162 -22 -38 2 -68 1 -68 -4 0 -15 -30 -20 -58 -8
-15 6 -36 10 -48 9 -11 -1 -27 5 -34 14 -8 9 -17 12 -24 6 -6 -4 -29 -8 -52
-8 -22 0 -45 -2 -50 -5 -5 -3 -40 -8 -79 -12 -38 -3 -64 -3 -57 0 8 4 10 10 3
17 -10 12 -11 17 -11 42 0 28 -112 106 -124 86z m993 -316 c10 -3 22 -1 26 4
4 7 14 5 29 -4 13 -9 31 -12 41 -9 9 4 20 2 24 -4 3 -6 38 -14 76 -17 39 -4
98 -17 132 -31 34 -13 71 -24 83 -24 11 0 32 -7 45 -16 14 -9 25 -13 25 -10 0
4 10 0 23 -7 12 -8 33 -12 47 -10 14 1 82 5 152 7 70 2 132 7 138 11 5 3 10
-1 10 -9 0 -10 13 -17 38 -21 56 -10 72 -15 72 -26 0 -5 9 -9 21 -9 11 0 35
-10 52 -22 29 -21 43 -23 167 -22 84 0 138 -4 142 -10 5 -7 8 -7 8 2 0 10 5
10 21 1 12 -6 37 -11 55 -11 19 0 37 -6 42 -13 4 -8 16 -13 27 -12 11 1 19 -3
18 -10 -2 -7 4 -10 12 -7 8 4 15 1 15 -6 0 -6 4 -9 9 -5 5 3 13 0 16 -6 4 -5
14 -8 22 -4 9 3 21 -3 29 -14 16 -22 146 -88 189 -95 17 -2 32 -5 35 -6 3 -1
9 -2 14 -1 4 1 14 -6 21 -15 8 -11 21 -15 38 -12 19 4 32 -1 48 -18 13 -13 26
-24 30 -24 11 0 94 -57 109 -75 7 -8 16 -13 20 -10 4 3 11 -11 14 -30 4 -21
13 -35 21 -35 8 0 15 -7 15 -15 0 -9 7 -18 15 -21 8 -4 12 -10 9 -15 -3 -5 1
-9 8 -9 9 0 9 -3 -2 -10 -20 -13 -33 -13 -25 0 3 5 0 7 -8 5 -7 -3 -30 2 -51
10 -27 11 -42 13 -49 6 -12 -12 8 -41 30 -41 7 0 16 -7 19 -15 4 -9 25 -27 49
-40 44 -26 78 -25 68 2 -5 13 -3 14 18 2 13 -7 26 -14 29 -15 3 0 13 -4 22 -8
9 -4 26 -3 37 4 17 9 21 8 21 -5 0 -9 4 -14 9 -10 5 3 19 -7 31 -22 12 -16 27
-28 33 -28 6 0 22 -22 36 -50 75 -143 112 -193 149 -197 17 -2 28 -10 31 -23
2 -11 28 -44 57 -74 30 -30 54 -60 54 -66 0 -24 30 -71 60 -93 16 -12 39 -40
50 -61 10 -21 26 -46 34 -54 8 -8 16 -36 17 -63 2 -27 9 -55 16 -62 7 -7 13
-22 13 -33 0 -11 16 -42 35 -70 19 -28 35 -62 35 -75 0 -13 5 -24 10 -24 6 0
10 -11 10 -25 0 -13 7 -28 17 -33 10 -6 14 -16 10 -26 -4 -9 -2 -16 4 -16 6 0
9 -6 6 -12 -4 -13 38 -108 53 -118 4 -3 23 -30 42 -60 19 -31 58 -75 86 -99
29 -23 52 -49 52 -57 0 -8 5 -14 10 -14 6 0 10 -9 10 -19 0 -11 5 -23 10 -26
6 -3 10 -21 10 -39 0 -17 5 -37 10 -42 6 -6 12 -26 14 -45 2 -19 6 -41 8 -49
3 -8 10 -31 17 -51 6 -19 11 -43 11 -52 0 -9 3 -17 8 -17 8 0 53 -97 57 -125
7 -47 19 -85 26 -85 6 0 9 -10 7 -22 -3 -24 27 -168 42 -205 5 -13 6 -23 2
-23 -10 0 -8 -47 3 -115 5 -27 9 -53 10 -57 0 -3 3 -10 8 -14 10 -10 9 -36 -1
-30 -5 3 -9 -1 -9 -9 0 -8 4 -15 7 -15 15 0 82 -226 73 -242 -2 -5 -14 -8 -26
-8 -17 0 -28 14 -49 59 -16 32 -28 65 -28 74 0 9 -4 18 -9 21 -5 3 -7 -36 -5
-92 3 -66 1 -92 -6 -82 -5 8 -10 10 -10 5 0 -6 -16 -10 -35 -10 -19 1 -35 -2
-35 -7 0 -16 -32 -8 -63 16 -73 54 -150 81 -159 54 -3 -9 -10 -8 -26 3 -13 9
-37 14 -62 12 -22 -2 -40 1 -40 6 0 12 -192 7 -211 -5 -8 -5 -41 -10 -74 -11
-77 -3 -186 -18 -267 -36 -34 -8 -72 -15 -83 -15 -18 -1 -104 -10 -255 -27
-30 -4 -69 -7 -87 -6 -18 0 -35 -4 -38 -10 -5 -6 -11 -7 -18 0 -7 5 -16 10
-22 10 -5 1 -13 13 -17 26 -14 54 -63 74 -188 77 -36 0 -70 5 -77 10 -9 7
-265 15 -305 9 -5 -1 -10 -1 -13 -1 -3 0 -19 -7 -35 -15 -21 -11 -59 -16 -118
-16 -132 -1 -175 -4 -195 -13 -10 -5 -48 -6 -83 -3 -48 3 -67 1 -70 -8 -3 -7
-13 -12 -22 -10 -9 2 -21 4 -25 4 -5 1 -5 7 -2 14 4 6 0 4 -8 -5 -16 -21 -27
-14 -27 17 0 25 23 49 34 37 4 -4 6 -2 5 3 -5 15 19 75 29 75 6 0 13 16 16 35
4 19 13 40 20 47 15 16 17 23 20 116 2 40 6 75 10 79 3 3 6 24 6 45 0 21 4 38
8 38 8 0 32 135 32 185 0 17 7 39 15 49 13 17 12 21 -3 33 -9 8 -11 12 -4 8 7
-4 12 0 12 9 0 9 5 16 12 16 6 0 26 11 43 25 18 13 35 22 38 19 3 -3 10 4 17
15 10 20 18 21 76 17 40 -3 74 -12 92 -24 28 -19 89 -47 107 -48 6 0 26 -5 45
-11 19 -7 45 -13 58 -15 12 -2 24 -7 25 -13 1 -5 14 -20 29 -33 15 -12 47 -51
72 -87 61 -85 97 -98 161 -61 25 15 77 59 116 99 39 40 75 71 80 70 5 -2 9 2
9 8 0 5 5 7 10 4 6 -3 10 -1 10 6 0 6 25 34 55 62 30 27 55 55 55 61 0 6 16
22 36 36 73 52 119 93 127 114 25 63 -24 144 -103 167 -22 7 -40 16 -40 21 0
4 -7 8 -14 8 -8 0 -46 29 -83 65 -88 84 -104 96 -144 119 -86 48 -106 60 -136
82 -17 13 -45 24 -61 24 -22 0 -42 12 -74 44 -23 24 -56 46 -72 50 -33 8 -86
45 -86 61 0 13 -114 115 -129 115 -6 0 -11 4 -11 9 0 5 -13 14 -29 21 -16 6
-32 18 -35 25 -3 8 -24 17 -48 20 -35 6 -46 12 -58 38 -16 33 -50 49 -106 48
-25 0 -45 -13 -89 -56 -32 -30 -62 -55 -69 -55 -6 0 -17 -13 -23 -30 -6 -16
-19 -33 -29 -37 -27 -10 -93 -85 -88 -98 3 -7 -12 -25 -33 -41 -63 -48 -75
-52 -134 -43 -30 5 -99 12 -155 15 -84 5 -102 3 -113 -10 -7 -9 -17 -14 -21
-11 -4 3 -45 -2 -91 -11 -55 -10 -99 -13 -129 -8 -25 4 -48 7 -52 6 -4 -1 -23
5 -42 13 -38 16 -188 18 -401 6 -107 -6 -222 6 -263 28 -9 5 -46 12 -82 16
-36 4 -75 13 -87 21 -12 8 -46 14 -75 14 -43 0 -57 5 -77 25 -13 14 -30 25
-38 25 -8 0 -20 6 -28 13 -7 6 -33 28 -58 47 -49 38 -91 95 -82 110 4 6 -3 10
-14 10 -15 0 -27 13 -42 46 -25 53 -56 76 -109 81 -33 3 -43 -1 -84 -42 -25
-26 -46 -54 -46 -64 0 -9 -19 -31 -41 -49 -23 -17 -60 -49 -83 -70 -22 -21
-71 -59 -109 -86 -37 -26 -73 -55 -80 -64 -14 -19 -40 -37 -74 -52 -13 -5 -23
-14 -23 -19 0 -11 -84 -101 -94 -101 -3 0 -14 -7 -23 -15 -79 -69 -86 -73
-119 -70 -19 1 -34 -1 -34 -5 0 -4 -10 -10 -22 -14 -34 -8 -114 -81 -99 -90 8
-5 0 -18 -25 -42 -36 -32 -36 -34 -16 -41 21 -8 20 -9 -8 -28 -17 -11 -30 -24
-30 -28 0 -5 -9 -16 -20 -25 -11 -10 -22 -28 -24 -42 -3 -14 -5 -25 -6 -25 -1
0 -3 -9 -5 -19 -4 -21 28 -70 39 -59 3 3 6 1 6 -5 0 -7 7 -12 15 -12 8 0 15
-4 15 -9 0 -5 -7 -14 -15 -21 -16 -14 -21 -60 -6 -60 25 0 41 14 41 36 0 14 7
35 15 48 22 33 51 23 59 -19 8 -39 50 -79 114 -107 58 -26 105 -78 119 -130 8
-31 20 -48 42 -61 17 -10 31 -22 31 -28 0 -23 61 -6 118 32 34 23 62 45 62 49
0 4 13 13 29 20 16 6 43 27 60 46 18 19 35 34 39 34 4 0 26 16 47 35 22 20 47
42 55 49 18 16 75 42 108 49 17 4 22 1 22 -16 0 -43 11 -66 30 -62 12 2 20 -4
23 -17 4 -14 11 -19 22 -15 9 4 22 -2 32 -13 10 -11 23 -20 29 -20 6 0 17 -21
24 -47 7 -27 17 -52 21 -57 5 -6 9 -22 9 -36 0 -14 11 -48 24 -76 27 -57 57
-160 64 -221 2 -24 8 -43 13 -43 5 0 9 -11 9 -24 0 -13 7 -29 15 -36 8 -7 15
-20 15 -29 0 -9 7 -29 16 -46 8 -16 18 -50 21 -75 3 -25 11 -55 19 -67 14 -23
38 -130 50 -222 4 -30 13 -66 20 -80 8 -14 14 -32 14 -38 0 -7 4 -13 9 -13 5
0 12 -12 16 -27 4 -16 21 -46 39 -68 18 -22 36 -50 40 -62 4 -13 14 -29 21
-37 10 -9 19 -69 29 -187 8 -96 20 -191 26 -211 12 -41 73 -113 88 -104 15 9
22 -20 29 -109 3 -44 12 -91 20 -105 13 -22 13 -49 4 -179 -10 -149 -10 -153
12 -186 19 -29 28 -34 71 -37 34 -2 56 2 70 13 53 41 124 55 150 29 6 -6 18
-10 27 -10 10 0 19 -5 21 -11 5 -14 147 -17 156 -3 4 7 15 8 28 3 18 -6 22
-16 22 -58 0 -38 -4 -51 -15 -51 -10 0 -13 -8 -9 -32 10 -56 15 -186 8 -192
-3 -4 -7 -13 -8 -21 -6 -41 -50 -254 -60 -290 -3 -11 -8 -53 -11 -92 -4 -56
-2 -78 10 -96 8 -13 17 -44 20 -68 2 -24 14 -62 25 -84 29 -56 31 -173 3 -224
-8 -15 -11 -43 -8 -75 7 -76 -3 -93 -60 -100 -75 -9 -88 -12 -99 -18 -5 -3
-24 -4 -42 -2 -21 2 -35 -1 -38 -9 -3 -8 -10 -14 -17 -15 -140 -11 -152 -14
-176 -40 -20 -22 -23 -33 -18 -75 4 -33 2 -58 -8 -77 -8 -15 -15 -48 -17 -74
-2 -25 -7 -46 -12 -46 -5 0 -6 -14 -2 -31 4 -21 1 -35 -9 -46 -9 -8 -15 -33
-15 -59 0 -24 -4 -44 -10 -44 -5 0 -10 -9 -10 -20 0 -12 -6 -31 -14 -43 -9
-13 -17 -63 -21 -122 -3 -55 -11 -114 -16 -132 -13 -40 -6 -170 10 -186 6 -6
37 -12 68 -12 54 -1 58 1 96 41 22 24 44 41 49 38 4 -3 8 0 8 7 0 6 8 9 20 6
11 -3 20 -1 20 3 0 5 8 8 18 8 9 0 31 3 47 7 17 3 45 6 62 6 18 -1 44 6 57 15
14 8 30 13 36 9 10 -6 69 1 165 21 60 12 161 20 205 16 72 -7 150 -4 215 8 87
17 125 17 143 3 28 -21 84 -15 115 12 15 13 27 27 27 30 0 3 9 27 21 52 11 25
18 51 15 58 -2 7 2 21 9 32 7 10 17 37 20 59 4 21 11 44 15 49 9 12 29 74 35
108 3 13 7 78 10 143 6 148 15 224 26 224 5 0 9 19 9 42 0 29 7 49 23 66 21
22 22 33 23 166 1 79 5 158 9 177 10 43 13 64 20 169 4 47 9 99 12 115 4 17 6
44 6 62 -1 31 18 50 38 37 5 -3 9 -1 9 4 0 6 32 10 73 9 69 -1 413 11 507 17
25 2 63 8 85 13 22 5 70 11 107 12 l66 2 5 -73 c3 -40 10 -149 16 -243 6 -93
13 -179 15 -189 3 -10 -4 -36 -14 -56 -11 -21 -17 -40 -14 -42 2 -3 -1 -18 -7
-34 -7 -16 -13 -49 -15 -74 -16 -227 -33 -320 -61 -339 -19 -12 -34 -157 -22
-209 6 -26 12 -60 14 -77 2 -16 8 -60 15 -98 7 -37 9 -84 6 -105 -3 -20 -7
-43 -8 -49 -2 -16 3 -16 -49 2 -24 9 -49 13 -57 10 -7 -2 -23 1 -35 9 -15 9
-56 14 -122 15 -55 1 -133 2 -174 2 -58 1 -77 -2 -86 -15 -7 -9 -21 -16 -32
-16 -11 0 -28 -9 -38 -20 -10 -11 -22 -17 -27 -14 -5 3 -24 -6 -43 -20 -18
-14 -37 -26 -42 -26 -15 -1 -43 -49 -48 -84 -4 -25 1 -50 19 -89 13 -30 30
-73 36 -96 10 -38 46 -109 60 -121 4 -3 13 -19 20 -36 24 -56 150 -120 199
-102 14 5 45 8 70 8 72 -1 165 11 173 24 6 8 8 7 8 -1 0 -7 6 -10 13 -8 25 10
106 15 212 14 61 0 121 -1 135 -1 14 0 72 5 130 11 58 6 115 10 127 11 12 0
28 6 35 13 7 6 38 12 68 12 63 0 165 45 175 77 4 10 11 18 16 18 5 0 9 7 9 15
0 8 4 15 8 15 5 0 15 12 22 28 8 15 19 34 25 42 21 29 36 90 35 142 -2 61 2
85 17 113 6 11 14 42 18 70 4 27 13 62 21 77 8 15 12 38 10 50 -9 43 -14 73
-21 128 -3 30 -15 81 -26 113 -17 49 -19 77 -15 170 3 62 7 121 10 132 15 56
28 208 26 290 -3 140 -1 192 9 230 12 49 17 240 8 310 -9 65 -10 121 -3 165 6
33 7 107 3 177 -1 18 -8 38 -14 44 -7 7 -13 16 -13 20 0 10 71 34 88 30 8 -1
21 4 30 12 10 7 33 15 52 16 61 5 75 7 88 15 7 4 30 8 52 8 22 0 40 3 40 7 0
4 42 12 93 19 106 14 137 19 169 30 13 4 35 7 51 6 15 0 27 4 27 10 0 7 27 11
73 12 39 0 97 2 127 3 108 3 154 -5 198 -34 23 -15 43 -33 43 -39 2 -18 0
-344 -2 -353 -1 -4 1 -20 5 -35 4 -15 4 -33 0 -40 -5 -7 -9 -15 -10 -18 0 -3
-4 -27 -8 -55 -5 -27 -16 -68 -26 -90 -10 -22 -21 -58 -25 -80 -4 -22 -9 -47
-12 -55 -8 -19 -11 -30 -17 -57 -2 -12 -10 -32 -17 -45 -7 -13 -14 -41 -15
-63 -1 -37 -6 -68 -33 -225 -10 -62 -30 -112 -42 -105 -8 6 -13 -8 -24 -65 -4
-19 -14 -42 -22 -52 -15 -17 -21 -37 -22 -77 -1 -13 -16 -37 -34 -55 -41 -39
-67 -80 -73 -114 -6 -38 -25 -82 -35 -82 -4 0 -11 -10 -15 -22 -3 -12 -14 -29
-23 -39 -9 -10 -18 -32 -19 -49 -2 -29 -32 -70 -50 -70 -5 0 -15 -11 -22 -25
-7 -14 -19 -25 -26 -25 -6 0 -14 -7 -18 -15 -3 -8 -12 -15 -21 -15 -8 0 -15
-4 -15 -10 0 -5 -6 -10 -14 -10 -14 0 -106 -95 -106 -109 0 -4 -16 -13 -35
-20 -19 -6 -42 -22 -52 -35 -10 -12 -26 -25 -35 -29 -10 -3 -18 -13 -18 -21 0
-9 -11 -18 -24 -22 -15 -3 -23 -11 -20 -19 3 -7 -10 -23 -28 -36 -18 -12 -62
-53 -98 -91 -36 -37 -72 -68 -80 -68 -20 -1 -54 -30 -63 -54 -4 -10 -10 -17
-13 -14 -6 7 -69 -54 -66 -64 1 -5 -5 -8 -13 -8 -8 0 -24 -8 -35 -18 -11 -9
-22 -15 -23 -13 -7 13 -45 -23 -50 -46 -4 -21 -25 -41 -89 -83 -46 -30 -89
-55 -96 -56 -7 -1 -34 -18 -61 -37 -27 -20 -70 -45 -95 -57 -25 -11 -46 -25
-46 -30 0 -16 -44 -51 -58 -45 -7 2 -10 0 -7 -5 3 -6 -3 -10 -14 -10 -11 0
-27 -8 -36 -17 -10 -9 -24 -17 -34 -18 -9 -1 -27 -7 -41 -15 -13 -7 -37 -13
-52 -12 -15 0 -28 -3 -28 -8 0 -5 -23 -13 -51 -19 -28 -6 -57 -18 -65 -26 -14
-14 -41 -20 -72 -16 -8 1 -20 -6 -27 -16 -7 -10 -17 -19 -22 -19 -31 -5 -52
-19 -62 -40 -9 -21 -20 -26 -47 -23 -3 0 -11 -6 -17 -14 -11 -14 -52 -29 -89
-32 -27 -3 -112 -27 -123 -35 -5 -4 -28 -11 -49 -14 -52 -10 -116 -36 -116
-48 0 -5 -4 -6 -10 -3 -5 3 -10 1 -10 -6 0 -7 -3 -9 -7 -6 -3 4 -12 -1 -19
-11 -8 -12 -26 -19 -49 -20 -31 -1 -96 -19 -200 -54 -46 -15 -157 -36 -211
-40 -35 -2 -55 -10 -71 -25 -12 -13 -29 -23 -38 -23 -8 0 -15 -4 -15 -9 0 -4
-21 -14 -47 -21 -27 -6 -60 -18 -75 -26 -14 -8 -33 -14 -41 -14 -9 0 -17 -5
-19 -11 -2 -6 -24 -13 -48 -15 -24 -3 -49 -9 -54 -14 -6 -6 -71 -10 -147 -10
-81 0 -140 -4 -144 -10 -3 -5 -23 -10 -43 -10 -20 0 -70 -7 -110 -15 -40 -9
-85 -14 -100 -12 -15 3 -41 -1 -58 -8 -17 -7 -78 -14 -134 -14 -56 -1 -107 -4
-112 -7 -21 -13 -174 -5 -213 12 -66 27 -323 53 -336 33 -5 -10 -14 -9 -40 1
-18 8 -51 15 -74 15 -22 1 -53 7 -68 13 -16 7 -43 12 -60 12 -32 0 -113 25
-132 40 -28 22 -188 100 -217 105 -18 3 -46 12 -63 20 -16 7 -48 16 -70 20
-22 4 -53 11 -70 16 -16 5 -43 11 -60 13 -16 3 -56 15 -87 28 -45 18 -63 32
-85 67 -15 24 -47 60 -72 80 -68 55 -107 100 -141 166 -18 33 -44 76 -59 95
-37 47 -52 77 -58 113 -9 59 -62 198 -92 244 -17 26 -31 52 -31 58 0 7 -7 19
-17 26 -22 18 -83 115 -83 131 0 7 -25 63 -56 123 -31 61 -59 128 -61 150 -3
22 -11 50 -19 62 -12 19 -13 42 -4 135 11 115 8 174 -13 261 -7 32 -8 54 -1
65 11 20 10 174 -2 347 -9 138 -10 291 -1 525 4 133 2 173 -10 209 -8 25 -17
79 -19 121 -1 41 -7 138 -12 215 -4 77 -9 158 -9 180 -1 22 -2 54 -3 72 0 18
-7 54 -15 80 -22 71 -18 174 9 278 14 49 22 93 19 98 -2 4 0 13 5 20 5 7 13
37 17 67 4 30 9 64 11 75 18 82 26 138 25 184 0 30 4 60 10 67 15 18 13 285
-2 294 -11 8 6 95 24 118 5 7 11 25 12 40 1 15 17 73 34 129 18 56 36 125 41
155 5 29 15 71 21 93 6 22 15 78 19 125 4 47 12 96 18 111 5 14 8 46 6 73 -2
27 3 65 12 89 9 23 16 51 15 62 0 10 9 33 19 51 11 17 17 34 13 37 -3 4 -1 12
5 19 5 7 15 47 21 88 11 73 24 124 41 165 17 42 53 171 57 205 2 19 8 37 12
40 5 3 11 14 13 25 2 11 10 19 16 18 7 -2 12 10 12 31 0 39 38 201 68 291 16
48 33 118 33 138 0 9 4 17 10 17 5 0 9 11 9 24 0 13 13 38 29 55 15 16 26 33
23 36 -3 3 0 5 6 5 6 0 9 6 6 13 -3 8 2 20 11 27 8 7 15 17 15 23 0 6 7 18 16
28 14 16 31 69 39 124 5 36 18 80 26 90 4 6 24 53 44 104 19 51 38 98 42 105
4 6 8 17 9 23 1 7 9 20 18 29 9 8 16 20 16 26 0 5 9 23 21 39 11 16 22 37 24
47 2 10 11 36 20 58 9 21 18 50 20 64 1 13 8 26 14 28 6 2 11 10 11 18 0 8 7
14 15 14 8 0 15 7 15 15 0 9 6 18 14 21 8 3 17 16 20 30 4 13 11 24 16 24 6 0
10 6 11 13 0 6 28 35 63 64 34 28 69 64 76 79 8 16 34 47 58 71 23 23 42 47
42 53 0 5 7 10 15 10 8 0 15 4 15 8 0 14 56 72 63 65 4 -3 7 1 7 10 0 9 5 16
12 14 7 -1 13 5 14 13 0 8 2 23 2 33 1 10 8 17 16 15 7 -2 31 11 52 28 22 17
41 30 44 30 3 -1 31 25 62 57 31 31 61 57 66 57 5 0 15 11 22 25 7 13 17 22
21 19 5 -2 20 9 35 26 15 16 32 30 38 30 6 0 20 15 29 33 18 32 106 107 126
107 6 0 12 -8 12 -17 1 -10 2 -29 3 -43 1 -14 12 -36 24 -48 25 -25 32 -83 8
-63 -16 13 -32 -2 -21 -19 10 -16 43 7 61 43 9 18 26 40 37 49 11 10 20 28 21
40 1 19 8 24 35 26 49 5 71 -4 115 -43 38 -35 53 -44 41 -26 -3 5 0 13 6 17 7
4 9 3 5 -4 -3 -6 -2 -13 3 -17 6 -3 8 -12 4 -20 -4 -11 -1 -13 12 -9 9 4 20 2
24 -5 4 -6 19 -14 34 -16 22 -4 29 0 42 25 16 31 12 70 -6 70 -6 0 -7 5 -4 10
3 6 16 10 29 10 12 0 27 5 32 10 6 6 71 12 145 15 74 2 136 5 139 6 5 2 36 6
73 10 9 1 17 9 17 16 0 8 5 11 10 8 6 -3 10 -3 10 2 0 9 189 8 219 -2z m2320
-747 l-1 -43 -12 35 c-12 31 -7 49 12 50 1 0 2 -19 1 -42z m-3648 -1081 c3 -5
9 -8 13 -8 20 3 26 0 21 -9 -3 -6 1 -7 9 -4 11 4 16 0 16 -12 1 -23 93 -100
115 -96 8 2 15 -2 15 -8 0 -5 4 -10 10 -10 5 0 32 -16 59 -35 34 -25 51 -32
54 -23 10 28 18 -43 8 -74 -14 -45 -7 -109 15 -125 23 -16 59 -17 76 0 26 24
63 41 93 43 35 2 74 16 74 27 1 4 1 18 1 32 0 24 2 25 37 19 20 -4 44 -7 52
-8 9 -1 32 -11 51 -22 43 -26 91 -39 99 -25 4 5 54 12 112 14 58 2 114 9 125
14 18 9 101 9 239 0 33 -2 75 -11 93 -21 39 -20 164 -30 193 -15 10 5 29 14
40 20 12 6 24 7 28 2 11 -15 51 -15 66 0 22 23 107 18 111 -6 4 -29 24 -46 60
-53 20 -4 34 -12 34 -21 0 -8 -5 -11 -11 -7 -8 4 -7 0 1 -15 6 -12 15 -19 21
-16 5 4 9 1 9 -5 0 -6 10 0 23 13 22 24 55 42 70 38 5 -1 7 9 5 21 -3 20 3 24
37 29 22 3 37 7 33 8 -4 0 9 16 27 35 19 18 35 42 35 52 0 11 23 43 50 72 28
29 50 56 50 59 0 10 50 52 79 68 16 8 31 21 34 30 7 17 52 21 62 4 4 -6 13 -8
21 -5 8 3 14 1 14 -4 0 -6 7 -10 15 -10 8 0 15 -5 15 -11 0 -5 4 -7 10 -4 10
6 72 -24 78 -37 2 -5 19 -24 38 -43 19 -20 34 -41 34 -49 0 -17 69 -79 91 -81
9 -1 33 -13 52 -28 20 -15 38 -27 42 -27 3 0 28 -16 56 -35 28 -19 60 -35 71
-35 19 0 47 -15 144 -77 19 -13 40 -23 46 -23 24 0 171 -124 160 -134 -3 -3 4
-6 16 -6 33 0 26 -16 -20 -47 -24 -16 -48 -39 -54 -51 -11 -22 -40 -52 -122
-123 l-32 -29 -48 36 c-26 20 -54 45 -63 55 -11 12 -30 19 -53 19 -21 0 -46 5
-57 11 -11 6 -30 12 -42 14 -12 3 -29 13 -37 22 -21 26 -105 64 -140 65 -16 1
-30 4 -30 8 0 24 -242 41 -256 18 -3 -4 -12 -8 -21 -8 -31 0 -71 -39 -79 -77
-8 -42 -8 -41 2 -67 5 -13 4 -17 -4 -12 -13 8 -53 -24 -45 -37 3 -4 -4 -18
-15 -30 -11 -12 -25 -42 -32 -66 -6 -24 -15 -51 -20 -60 -45 -90 -54 -121 -56
-188 -2 -40 -7 -81 -12 -90 -5 -10 -13 -54 -17 -98 -7 -74 -30 -132 -57 -143
-4 -2 -8 -12 -8 -22 0 -9 -7 -23 -15 -30 -8 -7 -15 -19 -15 -26 0 -8 -3 -14
-8 -14 -4 0 -13 -15 -20 -32 -7 -18 -18 -41 -23 -50 -5 -10 -9 -22 -9 -28 0
-6 -9 -29 -19 -53 -46 -100 -61 -141 -61 -161 0 -35 -24 -98 -53 -143 -15 -24
-27 -49 -27 -57 0 -7 -7 -19 -15 -26 -8 -7 -15 -27 -15 -46 0 -45 -20 -134
-30 -134 -8 0 -14 -23 -30 -124 -6 -33 -12 -62 -15 -65 -10 -9 -102 -17 -126
-10 -14 3 -58 0 -99 -7 -41 -6 -98 -14 -127 -17 -29 -3 -56 -8 -61 -11 -5 -3
-38 -8 -73 -11 -35 -3 -101 -10 -146 -14 -45 -5 -93 -6 -106 -4 -14 3 -34 0
-45 -6 -15 -8 -23 -7 -34 7 -31 35 -40 67 -49 164 -5 62 -16 116 -28 142 -10
22 -24 66 -30 96 -12 60 -69 200 -81 200 -4 0 -11 12 -15 28 -3 15 -13 35 -22
44 -8 9 -16 33 -18 53 -2 19 -6 48 -9 63 -4 15 -8 37 -11 50 -4 24 -20 76 -37
127 -6 17 -13 43 -15 58 -3 16 -15 48 -27 70 -12 23 -21 60 -21 82 0 22 -5 46
-11 52 -7 7 -10 22 -7 33 3 11 1 20 -5 20 -5 0 -15 21 -22 48 -11 45 -36 101
-83 188 -12 23 -23 47 -25 55 -3 17 -35 82 -43 89 -14 11 -29 51 -34 86 -2 20
-2 34 2 30 11 -11 33 16 33 41 0 42 -21 111 -41 132 -10 11 -19 24 -19 29 0 6
-9 12 -20 15 -11 3 -20 14 -20 25 0 11 -7 25 -15 32 -8 7 -15 18 -15 24 0 20
-78 49 -115 43 -34 -6 -135 -72 -135 -88 0 -9 -98 -58 -117 -59 -4 -1 -23 -14
-42 -30 -19 -16 -38 -27 -43 -24 -4 3 -21 -4 -37 -15 -16 -12 -34 -21 -40 -21
-6 0 -11 -6 -11 -14 0 -7 -12 -19 -27 -25 -16 -6 -45 -27 -65 -46 -20 -19 -41
-35 -47 -35 -6 0 -11 -4 -11 -10 0 -5 -6 -10 -12 -10 -12 0 -34 30 -63 82 -5
10 -18 21 -27 24 -9 3 -20 14 -23 25 -4 10 -11 19 -16 19 -5 0 -18 9 -29 20
-24 24 -26 72 -5 90 9 7 13 20 10 27 -3 9 0 13 7 11 7 -3 19 1 26 8 7 8 22 20
32 27 17 12 26 34 29 71 1 4 10 6 20 3 15 -4 20 2 25 26 8 40 33 67 63 67 14
0 21 4 18 10 -3 6 4 10 18 10 15 0 28 9 37 25 7 13 16 22 20 20 4 -3 15 7 24
20 9 14 21 23 26 20 5 -3 11 4 15 15 3 11 10 20 14 20 3 0 28 20 54 45 27 25
52 45 57 45 5 0 12 9 15 20 3 11 10 20 15 20 4 0 10 9 13 20 4 17 10 20 34 14
15 -4 25 -4 21 0 -3 4 10 23 30 42 36 33 49 34 73 1z m2284 -1769 c-4 -13 -10
-44 -14 -70 -4 -26 -10 -51 -14 -54 -12 -13 15 -34 43 -34 22 0 27 4 23 18 -3
14 3 18 28 20 17 1 39 7 48 12 9 4 45 10 79 12 34 1 62 6 62 11 0 4 4 6 9 2 5
-3 16 1 24 9 8 9 32 15 53 14 22 0 77 5 124 12 47 7 101 14 120 16 19 1 36 3
38 3 1 1 5 2 10 2 4 1 17 5 28 10 15 5 28 2 42 -9 19 -15 19 -16 -12 -31 -18
-9 -32 -25 -34 -37 -2 -12 -12 -30 -23 -40 -34 -30 -14 -96 25 -81 8 3 22 -1
33 -8 15 -12 21 -12 39 0 13 9 37 12 64 9 25 -3 40 -1 36 4 -6 10 40 23 49 14
10 -10 35 -11 35 -1 0 4 7 6 15 3 8 -4 22 -1 30 6 16 13 63 21 110 19 110 -6
230 0 250 13 11 6 64 9 188 10 42 1 77 5 77 9 0 4 11 6 25 4 14 -1 23 0 21 3
-9 8 67 42 94 42 70 -1 227 8 240 14 17 7 56 3 66 -6 10 -11 -28 -25 -84 -33
-32 -4 -56 -13 -59 -22 -4 -10 -18 -14 -47 -12 -22 1 -50 -3 -62 -9 -11 -6
-29 -11 -40 -11 -10 1 -30 -2 -43 -5 -13 -3 -32 -1 -42 4 -12 7 -27 6 -46 -2
-15 -6 -48 -13 -72 -14 -24 -2 -52 -11 -63 -21 -23 -21 -27 -21 -218 -29 -175
-7 -203 -7 -245 -4 -46 3 -137 -9 -151 -21 -7 -6 -18 -9 -26 -7 -7 2 -29 -7
-49 -18 -37 -22 -67 -72 -76 -128 -5 -30 -2 -35 26 -49 30 -15 32 -15 65 16
30 29 39 32 80 29 29 -3 44 -8 39 -15 -4 -6 0 -8 11 -4 9 4 34 0 56 -9 22 -9
45 -14 52 -11 7 2 21 0 32 -5 13 -7 21 -6 27 3 8 11 14 9 29 -10 11 -13 20
-19 20 -14 0 15 182 3 199 -13 2 -2 11 2 20 10 9 7 48 16 86 19 39 3 95 13
125 22 52 15 62 17 93 14 37 -3 196 17 205 26 3 2 11 0 19 -6 9 -9 13 -8 13 0
0 7 28 11 81 11 44 0 90 5 101 11 14 8 27 8 42 1 14 -6 28 -6 39 0 25 14 197
17 197 4 0 -16 63 -56 89 -56 29 0 96 45 81 55 -8 5 -7 12 5 25 13 14 14 25 6
60 -8 37 -50 93 -66 89 -3 -1 -15 1 -26 4 -21 6 -21 6 -2 26 13 14 27 19 46
15 15 -2 55 3 90 12 34 9 83 19 109 21 38 4 47 1 52 -14 8 -27 11 -242 3 -249
-4 -4 -2 -13 4 -20 6 -7 13 -71 15 -141 2 -70 7 -137 9 -148 33 -138 44 -235
26 -235 -4 0 -8 -37 -8 -82 0 -46 -1 -137 -1 -203 0 -66 0 -142 0 -168 1 -31
-4 -52 -12 -57 -16 -10 -59 -3 -77 12 -9 7 -13 7 -13 -1 0 -12 -54 -14 -85 -2
-24 10 -57 2 -49 -11 3 -5 0 -8 -7 -7 -8 2 -23 -2 -34 -8 -11 -6 -36 -10 -55
-9 -19 1 -51 -2 -70 -8 -19 -5 -82 -10 -140 -11 -70 -1 -132 -9 -185 -23 -44
-11 -114 -30 -155 -40 -41 -11 -103 -30 -137 -43 -60 -22 -67 -22 -151 -10
-102 14 -134 9 -152 -25 -8 -13 -17 -24 -22 -24 -17 0 -7 -67 15 -100 13 -19
32 -60 42 -90 19 -57 20 -87 12 -322 -2 -70 0 -132 4 -139 4 -7 3 -21 -2 -30
-13 -25 -18 -100 -24 -339 -3 -113 -8 -241 -11 -285 -4 -58 -2 -97 10 -141 20
-77 20 -80 -1 -63 -15 13 -16 12 -9 -11 4 -14 10 -79 13 -145 4 -98 9 -130 30
-179 27 -66 28 -76 20 -224 -4 -84 -9 -106 -24 -117 -10 -8 -21 -15 -25 -15
-5 0 -8 -7 -8 -16 0 -8 -4 -13 -8 -10 -5 3 -14 -17 -20 -45 -8 -35 -21 -58
-42 -76 -16 -13 -30 -30 -30 -37 0 -7 -12 -13 -27 -14 -25 0 -59 -6 -153 -26
-105 -21 -150 -27 -180 -23 -19 2 -44 1 -55 -3 -11 -4 -39 -1 -62 7 -38 13
-44 13 -59 -1 -8 -9 -30 -17 -47 -17 -18 -1 -41 -3 -52 -5 -94 -16 -132 -28
-147 -44 -9 -12 -27 -19 -42 -18 -26 2 -37 17 -13 19 22 3 -77 18 -120 18 -34
1 -45 6 -62 30 -12 16 -21 35 -21 43 0 8 -13 32 -29 54 -15 21 -34 55 -41 74
-12 34 -11 37 19 69 17 18 31 38 31 43 0 7 12 8 33 3 17 -4 49 -6 70 -6 20 1
37 -3 37 -9 0 -5 13 -10 29 -10 17 0 33 -5 36 -10 4 -6 10 -8 15 -5 5 3 11 2
14 -3 3 -5 20 -7 38 -6 18 1 55 -6 83 -17 27 -10 64 -19 80 -19 17 0 44 -8 60
-18 68 -42 147 -34 160 15 3 13 10 21 15 18 6 -4 10 12 11 37 0 24 2 84 3 133
3 77 -4 165 -17 226 -1 10 -8 23 -14 30 -16 21 -15 143 3 194 8 25 17 60 19
78 6 58 26 122 39 132 7 6 14 22 14 35 0 14 5 51 11 82 7 32 13 84 15 115 1
32 4 63 8 68 19 33 25 267 7 300 -3 6 -7 28 -8 49 -1 22 -4 43 -6 47 -3 4 -5
64 -6 135 0 110 -3 131 -20 152 -10 14 -19 31 -19 38 0 7 -10 19 -22 25 -13 6
-34 22 -48 35 -18 17 -39 23 -76 25 -28 1 -56 -1 -62 -5 -7 -4 -12 -2 -12 3 0
15 -20 14 -52 -3 -15 -8 -55 -14 -90 -14 -35 -1 -65 -1 -68 -2 -23 -6 -40 -7
-40 -2 0 4 -62 7 -137 6 -98 -1 -154 -6 -192 -17 -62 -19 -146 -22 -156 -6 -4
6 -13 8 -21 5 -8 -3 -14 -2 -14 2 0 16 -71 54 -107 58 -50 6 -64 -9 -91 -96
-23 -75 -37 -165 -46 -300 -2 -19 -6 -55 -9 -80 -4 -25 -9 -83 -12 -130 -3
-47 -8 -119 -11 -160 -4 -41 -6 -86 -6 -100 1 -14 -3 -34 -8 -45 -5 -11 -14
-56 -20 -100 -6 -44 -14 -98 -17 -120 -3 -21 -11 -48 -18 -60 -7 -11 -18 -63
-24 -115 -24 -189 -51 -300 -73 -300 -5 0 -8 -7 -6 -16 2 -9 -4 -18 -12 -19
-8 -2 -35 -6 -60 -10 -24 -4 -51 -10 -60 -15 -8 -4 -37 -15 -63 -24 -44 -15
-56 -15 -125 -1 -109 21 -170 24 -182 9 -14 -16 -49 -24 -56 -12 -4 5 -13 3
-23 -6 -17 -15 -154 -39 -206 -35 -16 1 -46 1 -65 1 -19 -1 -45 -2 -57 -2 -13
0 -23 -4 -23 -8 0 -5 -6 -9 -12 -9 -7 0 -25 -4 -39 -8 -15 -4 -30 -2 -33 3 -8
13 19 182 30 191 5 3 10 11 11 16 0 6 4 28 7 50 4 22 14 56 23 75 9 19 18 51
20 70 2 19 10 52 18 73 8 20 15 48 15 61 0 32 16 43 75 53 82 15 117 8 178
-32 69 -46 102 -43 164 13 l42 38 -1 155 c0 85 4 174 11 199 13 55 14 177 2
184 -5 4 -8 14 -6 24 1 9 -10 42 -26 72 -15 30 -34 78 -42 105 -18 64 -14 174
8 217 10 18 21 60 25 93 5 33 11 74 14 90 3 17 8 95 11 175 6 158 9 174 36
208 11 14 17 36 15 53 -2 16 3 34 10 40 10 8 14 8 14 0 0 -6 10 -11 23 -11 22
0 67 55 67 82 1 7 9 31 20 53 11 22 19 50 20 63 0 12 4 22 10 22 5 0 7 13 4
30 -4 16 -2 36 3 42 5 7 10 31 12 53 3 63 11 94 27 103 8 4 16 18 19 31 5 29
24 53 36 45 8 -5 70 23 79 36 3 4 15 12 26 18 12 6 32 33 44 59 22 48 23 85 4
201 -3 19 -1 32 5 32 6 0 8 7 4 16 -4 10 0 20 10 26 13 7 16 21 14 62 -1 39 2
57 16 70 9 10 17 23 17 30 0 8 6 19 14 26 8 6 12 18 9 26 -3 8 0 14 6 14 6 0
11 8 11 18 0 10 3 22 7 26 4 3 8 14 9 24 2 9 4 26 6 37 2 11 11 29 21 39 9 11
22 35 29 53 7 18 17 32 23 32 29 -4 45 4 83 41 26 26 42 35 45 27 3 -6 6 -2 7
11 2 12 4 27 5 32 1 6 3 15 4 20 0 6 6 10 12 10 7 0 9 -8 4 -22z m-1276 -1017
c25 -5 49 -8 53 -5 4 3 8 -4 8 -15 0 -12 -4 -21 -10 -21 -5 0 -10 -7 -10 -15
0 -8 -7 -15 -15 -15 -8 0 -15 -4 -15 -9 0 -5 -10 -11 -22 -13 -25 -4 -51 19
-74 65 -18 33 -11 49 19 42 12 -3 42 -9 66 -14z m299 -151 c-7 -11 -21 -23
-30 -26 -10 -3 -18 -10 -18 -15 0 -6 -4 -8 -9 -5 -5 4 -7 -2 -4 -12 2 -10 -3
-24 -12 -32 -13 -11 -15 -10 -8 6 6 16 3 16 -29 -4 -19 -12 -37 -22 -40 -22
-2 0 -4 15 -4 34 1 30 4 33 27 32 21 -2 25 2 21 16 -3 13 0 17 11 12 12 -4 14
-1 10 15 -4 16 1 21 31 26 20 4 39 12 42 17 4 7 10 4 16 -5 5 -11 4 -24 -4
-37z"/>
<path d="M8545 8960 c-3 -5 -1 -10 4 -10 6 0 11 5 11 10 0 6 -2 10 -4 10 -3 0
-8 -4 -11 -10z"/>
<path d="M9710 9480 c-8 -5 -17 -7 -21 -4 -4 2 -18 -8 -31 -21 -14 -14 -43
-37 -64 -51 -46 -31 -58 -49 -60 -89 -1 -16 -4 -38 -8 -47 -14 -39 -15 -48 -7
-48 4 0 6 -11 3 -25 -2 -14 -7 -23 -11 -21 -4 3 -13 1 -21 -5 -10 -6 -11 -9
-2 -9 6 0 12 -5 12 -11 0 -5 -4 -7 -10 -4 -5 3 -10 0 -10 -7 0 -10 -2 -10 -9
0 -6 11 -10 8 -14 -10 -5 -17 -14 -23 -37 -25 -16 -1 -36 -2 -42 -3 -25 -2
-52 7 -56 19 -5 16 -32 -5 -32 -25 0 -8 -5 -13 -11 -12 -19 5 -19 -34 1 -62
26 -36 35 -77 20 -95 -6 -7 -17 -12 -23 -10 -13 5 -66 -105 -71 -146 -1 -14
-5 -29 -8 -34 -2 -6 -6 -44 -6 -85 -2 -83 8 -104 66 -134 37 -19 61 -20 99 -4
15 6 39 13 52 14 12 2 29 11 37 21 9 13 13 14 14 4 0 -10 3 -11 13 -3 17 14
112 18 129 5 17 -14 74 -24 83 -15 4 4 10 7 13 8 35 2 72 18 72 30 0 8 6 17
13 20 15 6 17 13 17 106 0 37 6 82 13 100 12 30 21 126 20 215 0 18 2 31 6 29
11 -7 2 109 -12 156 -11 34 -12 59 -6 95 10 49 3 123 -10 123 -4 0 -25 15 -47
34 -28 24 -45 32 -54 26z m-210 -430 c10 0 22 -5 25 -10 4 -6 1 -9 -5 -8 -7 2
-14 -5 -15 -14 -2 -10 1 -18 6 -18 5 0 1 -8 -8 -19 -18 -18 -18 -18 -34 2 -9
10 -14 30 -11 42 2 13 -2 33 -8 46 l-12 24 21 -22 c12 -13 30 -23 41 -23z
m-20 -272 c0 -11 -5 -15 -15 -12 -15 6 -20 35 -8 47 9 9 23 -13 23 -35z"/>
<path d="M10081 9312 c-1 -7 4 -22 9 -32 8 -15 6 -23 -9 -37 -10 -10 -19 -31
-19 -47 0 -17 4 -23 8 -16 4 7 5 21 2 33 -3 13 -1 18 6 13 13 -8 8 -42 -9 -62
-9 -11 -8 -14 7 -14 16 0 17 -2 4 -10 -10 -7 -11 -10 -2 -10 10 0 10 -4 0 -19
-7 -11 -14 -19 -17 -19 -23 2 -31 -5 -31 -28 0 -14 -6 -32 -14 -40 -13 -12
-17 -12 -29 1 -13 13 -15 9 -16 -33 0 -26 -5 -71 -11 -101 -23 -120 -5 -194
55 -231 47 -29 100 -24 140 12 17 16 34 28 38 28 5 0 7 8 6 18 -1 9 0 22 1 27
1 6 1 36 0 67 -1 46 3 61 20 78 11 11 18 25 15 30 -4 6 0 12 7 15 8 3 15 17
16 32 1 15 8 36 16 48 8 12 16 30 18 41 2 10 7 22 13 26 5 4 9 39 9 78 -1 59
-6 75 -28 105 -15 20 -31 33 -36 30 -5 -3 -11 -1 -15 4 -3 6 -37 9 -75 8 -40
-1 -72 2 -74 8 -3 5 -5 4 -5 -3z"/>
<path d="M17343 4095 c-24 -24 -43 -54 -43 -66 0 -14 -5 -19 -14 -16 -11 4
-14 -5 -12 -45 0 -32 -4 -53 -11 -55 -7 -3 -9 -15 -6 -31 7 -38 -15 -159 -38
-208 -10 -23 -19 -57 -19 -76 0 -19 -3 -38 -7 -42 -4 -4 -6 -22 -5 -41 2 -18
-1 -36 -7 -39 -11 -7 -5 -124 11 -206 17 -86 27 -318 14 -338 -9 -15 -107 -13
-132 3 -15 10 -60 13 -173 11 -144 -2 -153 -1 -164 19 -6 11 -10 25 -8 30 6
17 1 78 -10 118 -7 26 -7 42 0 51 6 7 10 23 9 37 -2 54 -2 54 70 52 87 -2 102
-5 96 -15 -3 -4 2 -8 10 -8 9 0 16 6 16 13 0 7 7 4 15 -7 14 -18 15 -18 15 -2
0 9 5 14 11 11 14 -9 69 14 69 30 0 7 12 25 27 41 19 20 27 40 27 65 1 62 -46
122 -66 85 -8 -14 -45 -15 -102 0 -22 5 -27 4 -21 -6 4 -6 -4 -4 -19 5 -15 10
-33 14 -43 10 -32 -13 -135 -16 -148 -5 -8 6 -16 30 -20 53 -11 76 -27 137
-35 137 -5 0 -7 9 -5 21 2 11 -5 43 -16 71 -14 37 -18 62 -13 94 6 42 5 45
-45 93 -51 50 -51 50 -104 44 -87 -10 -93 -18 -96 -126 -2 -101 4 -114 60
-136 21 -7 28 -18 32 -48 7 -62 27 -156 38 -185 9 -21 7 -38 -4 -73 -9 -25
-13 -45 -10 -45 3 0 -7 -10 -23 -22 -15 -13 -36 -22 -45 -20 -9 2 -28 -11 -42
-27 -13 -16 -28 -27 -31 -24 -3 4 -6 1 -6 -5 0 -7 -5 -12 -10 -12 -6 0 -24
-10 -40 -22 -16 -12 -38 -22 -48 -23 -11 0 -41 -15 -69 -33 -53 -34 -83 -85
-83 -139 0 -33 50 -110 78 -120 9 -3 33 -13 52 -21 19 -8 44 -17 54 -19 11 -2
24 -7 30 -12 6 -5 56 -24 111 -41 125 -40 127 -41 144 -75 16 -34 18 -326 2
-424 -6 -40 -7 -70 -1 -81 6 -12 5 -37 -5 -74 -16 -60 -18 -141 -7 -216 10
-65 4 -97 -19 -103 -10 -3 -19 -1 -19 5 0 5 -4 6 -10 3 -5 -3 -10 2 -10 12 0
14 -2 15 -9 5 -6 -10 -10 -8 -14 8 -5 18 -11 21 -34 16 -69 -15 -303 4 -303
24 0 7 -25 18 -64 26 -24 5 -75 63 -76 85 0 16 40 59 56 59 10 0 43 27 118 96
47 43 48 45 31 64 -10 11 -27 20 -37 20 -11 0 -28 5 -39 11 -13 7 -24 7 -32 1
-7 -6 -29 -13 -49 -17 -20 -4 -39 -13 -42 -21 -3 -8 -12 -14 -20 -14 -18 0
-49 -48 -42 -66 3 -9 1 -12 -4 -9 -6 3 -10 0 -10 -7 0 -7 -18 -23 -39 -35 -35
-20 -39 -27 -43 -70 -4 -48 9 -129 24 -148 50 -67 116 -104 197 -112 111 -10
147 -16 156 -24 5 -5 23 -9 40 -9 16 0 47 -5 68 -11 52 -14 122 -15 138 -2 27
22 71 3 141 -62 47 -44 58 -50 97 -50 37 0 47 5 72 35 17 20 28 44 27 58 -3
23 6 30 76 63 16 8 37 13 46 11 9 -1 39 7 66 19 27 12 57 23 67 24 11 1 22 7
25 12 9 14 77 33 89 24 15 -10 32 -80 43 -170 12 -105 44 -150 106 -151 30 0
32 3 41 50 7 33 7 52 0 59 -8 8 -7 26 2 60 7 28 10 59 6 70 -3 10 -1 22 4 25
6 4 8 29 5 57 -6 60 3 75 79 129 31 22 58 48 61 58 3 10 20 23 37 29 17 7 33
21 36 32 3 13 14 21 27 21 12 0 31 15 46 35 14 19 30 33 37 30 7 -2 10 2 6 11
-3 7 0 14 6 14 6 0 11 8 11 18 0 10 6 26 14 37 17 25 15 128 -3 149 -7 9 -11
22 -8 29 3 7 -1 21 -9 31 -7 11 -11 23 -8 27 3 5 0 9 -5 9 -6 0 -22 21 -35 48
-13 26 -38 63 -55 82 -17 19 -31 38 -31 41 0 3 -12 12 -27 20 -34 17 -58 35
-99 75 l-32 30 -1 185 c-1 101 -5 200 -11 219 -12 40 -9 81 24 342 1 10 5 21
9 24 11 11 8 52 -3 59 -8 5 -8 11 0 20 12 15 19 194 8 201 -4 3 -8 20 -8 38 0
35 18 59 41 54 11 -2 14 12 13 61 -1 54 -5 67 -24 83 -34 28 -61 21 -107 -27z
m-829 -946 c15 -14 15 -137 0 -150 -7 -6 -17 -8 -22 -5 -5 3 -32 7 -61 10 -56
6 -117 34 -110 51 2 6 8 9 13 7 12 -4 47 29 40 39 -5 9 9 13 33 10 6 -1 14 13
18 30 7 29 9 31 43 24 21 -4 41 -11 46 -16z m425 -383 c25 -1 51 1 56 6 6 4
29 1 50 -7 22 -8 54 -14 71 -15 16 0 40 -10 53 -21 23 -22 23 -29 5 -109 -7
-30 -6 -96 2 -130 3 -14 7 -68 10 -120 3 -52 9 -107 14 -122 5 -15 5 -30 0
-33 -9 -6 -8 -24 3 -42 4 -6 3 -14 -3 -18 -5 -3 -10 -14 -10 -23 -1 -20 -34
-62 -50 -62 -6 0 -10 -8 -8 -17 2 -10 -3 -18 -9 -19 -7 -1 -16 -3 -20 -4 -5
-1 -16 -1 -26 -1 -9 1 -25 -5 -34 -15 -10 -9 -19 -12 -21 -6 -3 11 -70 -3 -87
-19 -5 -5 -22 -9 -39 -9 -16 0 -37 -7 -47 -16 -9 -8 -37 -17 -61 -20 -35 -4
-48 -1 -62 14 -20 23 -27 99 -9 113 6 6 12 37 13 72 2 72 4 101 18 217 6 47 8
112 6 145 -7 96 -4 188 5 210 5 11 12 28 15 39 4 12 13 17 26 13 10 -3 27 1
37 8 13 9 23 10 37 3 10 -6 39 -11 65 -12z m487 -190 c38 -26 70 -64 60 -73
-3 -3 1 -21 9 -40 8 -20 15 -49 15 -65 0 -16 4 -37 10 -47 7 -14 5 -23 -10
-36 -11 -10 -17 -22 -14 -26 3 -5 -5 -9 -17 -9 -12 0 -27 -7 -34 -17 -16 -22
-43 -11 -56 24 -14 38 -22 313 -8 313 5 0 26 -11 45 -24z"/>
<path d="M1230 3323 c-35 -14 -41 -70 -10 -98 18 -16 23 -17 45 -5 31 17 33
57 5 88 -12 12 -22 22 -23 21 -1 0 -9 -3 -17 -6z"/>
<path d="M16875 3200 c3 -5 10 -10 16 -10 5 0 9 5 9 10 0 6 -7 10 -16 10 -8 0
-12 -4 -9 -10z"/>
</g>
</svg>
